#
# object g_g
#

o g_g
v 0.285888 -11.592270 -0.999575
v 0.285863 -12.193950 -0.999584
v 0.335215 -11.592270 -1.085010
v 0.338059 -12.193950 -1.089984
v 0.293060 -12.262320 -1.069762
v 0.246440 -12.262320 -0.989020
v 0.338059 -12.193950 -1.089984
v -0.086521 -12.193950 -1.174439
v 0.335215 -11.592270 -1.085010
v 0.293060 -12.262320 -1.069762
v -0.091142 -11.592270 -1.169818
v -0.086266 -12.262320 -1.145790
v -0.525503 -12.193950 -1.087120
v -0.514198 -12.262320 -1.060688
v -0.530127 -11.592270 -1.082500
v -0.897657 -12.193950 -0.838456
v -0.876997 -12.262320 -0.818303
v -0.902278 -11.592270 -0.833835
v -1.146321 -12.193950 -0.466302
v -1.119421 -12.262320 -0.455518
v -1.150942 -11.592270 -0.461681
v -1.215121 -12.193950 -0.120420
v -1.179792 -12.262320 -0.149278
v -1.218823 -11.592270 -0.120431
v -1.215121 -12.193950 -0.120420
v -1.113012 -11.592270 -0.120429
v -1.218823 -11.592270 -0.120431
v -1.113017 -12.193950 -0.120417
v -1.179792 -12.262320 -0.149278
v -1.084160 -12.262320 -0.149274
v -1.113017 -12.193950 -0.120417
v -1.113012 -12.193950 0.135864
v -1.113012 -11.592270 -0.120429
v -1.084160 -12.262320 -0.149274
v -1.113020 -11.592270 0.135839
v -1.084154 -12.262320 0.164724
v -1.201184 -12.193950 0.135861
v -1.113020 -11.592270 0.135839
v -1.113012 -12.193950 0.135864
v -1.165768 -12.262320 0.164722
v -1.084154 -12.262320 0.164724
v -1.206729 -11.592270 0.135837
v -1.201184 -12.193950 0.135861
v -1.146321 -12.193950 0.411664
v -1.206729 -11.592270 0.135837
v -1.165768 -12.262320 0.164722
v -1.119434 -12.262320 0.400380
v -1.150942 -11.592270 0.416285
v -0.897657 -12.193950 0.783818
v -0.877043 -12.262320 0.763204
v -0.902278 -11.592270 0.788438
v -0.530126 -11.592270 1.037103
v -0.525506 -12.193950 1.032482
v -0.514230 -12.262320 1.005623
v -0.091141 -11.592270 1.124421
v -0.086521 -12.193950 1.119801
v -0.086266 -12.262320 1.090735
v 0.347842 -11.592270 1.037103
v 0.352463 -12.193950 1.032482
v 0.341558 -12.262320 1.005289
v 0.401699 -11.592270 1.001117
v 0.401068 -12.193950 1.000006
v 0.362536 -12.262320 0.990976
v 0.401068 -12.193950 1.000006
v 0.347806 -12.193950 0.907747
v 0.401699 -11.592270 1.001117
v 0.362536 -12.262320 0.990976
v 0.347795 -11.592270 0.907745
v 0.308386 -12.262320 0.897185
v 0.347806 -12.193950 0.907747
v 0.569749 -12.193950 0.779602
v 0.347795 -11.592270 0.907745
v 0.308386 -12.262320 0.897185
v 0.569733 -11.592270 0.779619
v 0.580315 -12.262320 0.740179
v 0.614615 -12.193950 0.857318
v 0.569733 -11.592270 0.779619
v 0.569749 -12.193950 0.779602
v 0.624174 -12.262320 0.816154
v 0.580315 -12.262320 0.740179
v 0.615233 -11.592270 0.858438
v 0.615233 -11.592270 0.858438
v 0.614615 -12.193950 0.857318
v 0.719993 -11.592270 0.788438
v 0.624174 -12.262320 0.816154
v 0.724617 -12.193950 0.783817
v 0.704340 -12.262320 0.763033
v 0.968658 -11.592270 0.416288
v 0.973281 -12.193950 0.411666
v 0.946849 -12.262320 0.400358
v 1.055979 -11.592270 -0.022698
v 1.060600 -12.193950 -0.027320
v 1.031950 -12.262320 -0.027573
v 0.968660 -11.592270 -0.461682
v 0.973281 -12.193950 -0.466302
v 0.946818 -12.262320 -0.455490
v 0.719996 -11.592270 -0.833833
v 0.724616 -12.193950 -0.838456
v 0.704362 -12.262320 -0.818201
v 0.554423 -12.193950 -0.952174
v 0.564154 -12.262320 -0.911314
v 0.551218 -11.592270 -0.946607
v 0.554423 -12.193950 -0.952174
v 0.507811 -12.193950 -0.871445
v 0.551218 -11.592270 -0.946607
v 0.564154 -12.262320 -0.911314
v 0.518374 -12.262320 -0.832026
v 0.507816 -11.592270 -0.871437
v 0.507811 -12.193950 -0.871445
v 0.285863 -12.193950 -0.999584
v 0.507816 -11.592270 -0.871437
v 0.518374 -12.262320 -0.832026
v 0.246440 -12.262320 -0.989020
v 0.285888 -11.592270 -0.999575
v 0.362536 -12.262320 0.990976
v 0.341558 -12.262320 1.005289
v 0.308386 -12.262320 0.897185
v 0.230179 -12.262320 0.734802
v 0.580315 -12.262320 0.740179
v -0.085800 -12.262320 0.797653
v -0.086266 -12.262320 1.090735
v 0.498054 -12.262320 0.555814
v 0.624174 -12.262320 0.816154
v -0.401779 -12.262320 0.734802
v -0.514230 -12.262320 1.005623
v 0.704340 -12.262320 0.763033
v -0.877043 -12.262320 0.763204
v -0.669654 -12.262320 0.555814
v 0.946849 -12.262320 0.400358
v 0.677041 -12.262320 0.287940
v -1.119434 -12.262320 0.400380
v -0.848641 -12.262320 0.287940
v 1.031950 -12.262320 -0.027573
v 0.739892 -12.262320 -0.028039
v -1.165768 -12.262320 0.164722
v 0.946818 -12.262320 -0.455490
v 0.677041 -12.262320 -0.344018
v -1.084154 -12.262320 0.164724
v -0.911492 -12.262320 -0.028039
v 0.704362 -12.262320 -0.818201
v 0.498053 -12.262320 -0.611892
v -1.084160 -12.262320 -0.149274
v -0.848641 -12.262320 -0.344018
v 0.518374 -12.262320 -0.832026
v 0.564154 -12.262320 -0.911314
v 0.230179 -12.262320 -0.790880
v 0.246440 -12.262320 -0.989020
v -0.085800 -12.262320 -0.853732
v -1.119421 -12.262320 -0.455518
v -1.179792 -12.262320 -0.149278
v -0.876997 -12.262320 -0.818303
v -0.669654 -12.262320 -0.611892
v -0.514198 -12.262320 -1.060688
v -0.086266 -12.262320 -1.145790
v 0.293060 -12.262320 -1.069762
v -0.401779 -12.262320 -0.790880
v -0.401779 -11.731340 -0.790880
v -0.085800 -11.731340 -0.853732
v -0.669654 -11.731340 -0.611892
v 0.230179 -11.731340 -0.790880
v 0.498053 -11.731340 -0.611892
v 0.677041 -11.731340 -0.344018
v 0.739892 -11.731340 -0.028039
v 0.677041 -11.731340 0.287939
v 0.498054 -11.731340 0.555814
v 0.230179 -11.731340 0.734802
v -0.085800 -11.731340 0.797653
v -0.401779 -11.731340 0.734802
v -0.669654 -11.731340 0.555814
v -0.848641 -11.731340 0.287941
v -0.911492 -11.731340 -0.028039
v -0.848641 -11.731340 -0.344018
v 0.230179 -12.262320 -0.790880
v 0.498053 -12.262320 -0.611892
v 0.230179 -11.731340 -0.790880
v 0.498053 -11.731340 -0.611892
v 0.677041 -12.262320 -0.344018
v 0.677041 -11.731340 -0.344018
v 0.739892 -12.262320 -0.028039
v 0.739892 -11.731340 -0.028039
v 0.677041 -12.262320 0.287940
v 0.677041 -11.731340 0.287939
v 0.498054 -12.262320 0.555814
v 0.498054 -11.731340 0.555814
v 0.230179 -12.262320 0.734802
v 0.230179 -11.731340 0.734802
v -0.085800 -12.262320 0.797653
v -0.085800 -11.731340 0.797653
v -0.401779 -12.262320 0.734802
v -0.401779 -11.731340 0.734802
v -0.669654 -12.262320 0.555814
v -0.669654 -11.731340 0.555814
v -0.848641 -12.262320 0.287940
v -0.848641 -11.731340 0.287941
v -0.911492 -12.262320 -0.028039
v -0.911492 -11.731340 -0.028039
v -0.848641 -12.262320 -0.344018
v -0.848641 -11.731340 -0.344018
v -0.669654 -12.262320 -0.611892
v -0.669654 -11.731340 -0.611892
v -0.401779 -12.262320 -0.790880
v -0.401779 -11.731340 -0.790880
v -0.085800 -12.262320 -0.853732
v -0.085800 -11.731340 -0.853732
v 0.230179 -12.262320 -0.790880
v 0.230179 -11.731340 -0.790880
v -1.976095 -11.636710 -3.123327
v -1.980374 -11.585660 -3.184581
v -1.980369 -11.636720 -3.184578
v -1.976097 -11.585660 -3.123330
v -1.980374 -10.995400 -3.184581
v -1.976097 -10.995400 -3.123330
v -1.666963 -11.585620 -2.902891
v -1.666963 -10.995350 -2.902891
v -1.666960 -11.636680 -2.902885
v -1.597940 -11.636670 -2.912911
v -1.597944 -11.585620 -2.912913
v -1.597942 -10.995350 -2.912914
v -1.508795 -11.636660 -3.027092
v -1.508801 -11.585610 -3.027097
v -1.508801 -10.995350 -3.027097
v -1.312482 -11.636660 -3.186557
v -1.312485 -11.585610 -3.186559
v -1.312485 -10.995350 -3.186559
v -1.045375 -11.636660 -3.311135
v -1.045377 -11.585610 -3.311141
v -1.045377 -10.995350 -3.311141
v -0.609979 -11.636660 -3.397795
v -0.609979 -11.585610 -3.397801
v -0.609978 -10.995350 -3.397801
v -0.127075 -11.636660 -3.413192
v -0.127075 -11.585610 -3.413198
v -0.127075 -10.995350 -3.413198
v 0.326132 -11.636660 -3.395626
v 0.326132 -11.585610 -3.395632
v 0.326132 -10.995350 -3.395632
v 0.753507 -11.636660 -3.337212
v 0.753507 -11.585610 -3.337217
v 0.753507 -10.995350 -3.337217
v 0.879374 -11.636660 -3.277526
v 0.894275 -11.585610 -3.274234
v 0.894275 -10.995350 -3.274234
v 0.942054 -11.585610 -3.098546
v 0.942054 -10.995350 -3.098546
v 0.852225 -11.585620 -2.905419
v 0.852225 -10.995350 -2.905419
v 0.814498 -11.585620 -2.672537
v 0.814498 -10.995350 -2.672537
v 0.887846 -11.585620 -2.411314
v 0.887846 -10.995350 -2.411314
v 1.107577 -11.585620 -2.184726
v 1.107577 -10.995350 -2.184726
v -1.980369 -11.636720 -3.184578
v -1.980374 -11.585660 -3.184581
v -1.862284 -11.636720 -3.296549
v -1.862286 -11.585660 -3.296552
v -1.980374 -10.995400 -3.184581
v -1.862286 -10.995400 -3.296552
v -1.660774 -11.585670 -3.487627
v -1.660774 -10.995410 -3.487627
v -1.660772 -11.636720 -3.487621
v -1.380238 -11.585670 -3.753635
v -1.380238 -10.995410 -3.753637
v -2.230057 15.100100 0.161624
v -2.137181 15.234980 -0.184925
v -2.230057 15.100100 -1.761298
v -2.233730 -11.583310 -1.451183
v -2.233730 -11.583310 1.216500
v -2.233730 -10.993790 -1.451182
v -2.233729 -5.287811 -2.961437
v -2.233730 -10.993810 -2.961435
v -1.380347 -5.287811 -3.777862
v -1.370355 -5.109626 -3.755400
v -2.217277 -5.109626 -2.945286
v -1.262349 15.100130 -3.779358
v -2.230057 15.100100 -2.945306
v -1.380238 -10.993820 -3.777891
v -0.734226 -10.993820 -3.920839
v -0.734201 -5.287811 -3.920840
v -0.729101 15.100130 -3.897352
v -0.729204 -5.109626 -3.897274
v -1.324643 15.236490 -3.669411
v -0.715439 15.236490 -3.804212
v -0.088064 15.100130 -3.944566
v -0.088218 -10.993820 -3.968525
v -0.088052 -5.287811 -3.968520
v -0.088054 -5.109626 -3.944584
v -2.136166 15.236460 -2.904769
v -2.042273 15.372810 -2.864230
v -1.190110 15.372830 -3.603015
v 0.557795 -10.993820 -3.920983
v 0.558096 -5.287811 -3.920912
v 0.553100 -5.109626 -3.897343
v 0.552977 15.100130 -3.897352
v 0.539312 15.236490 -3.804212
v -0.088064 15.236490 -3.850419
v -2.042273 15.372810 -2.377816
v -2.137181 15.234980 -2.068825
v 1.086223 15.100130 -3.779358
v 1.194250 -5.109626 -3.755472
v 1.203806 -10.993820 -3.778036
v 1.204243 -5.287811 -3.777935
v 2.070619 -5.287811 -2.961437
v 2.053932 15.100100 -2.945307
v 1.148517 15.236490 -3.669412
v 0.525652 15.372840 -3.711072
v 1.013983 15.372830 -3.603016
v 2.053931 -5.109626 -2.945287
v 2.070618 -10.993810 -2.961436
v 1.960039 15.236460 -2.904769
v 1.866147 15.372810 -2.864232
v -0.088063 15.372840 -3.756272
v -0.701775 15.372840 -3.711072
v 1.866147 15.372810 -2.377816
v 1.960039 15.236460 -2.904769
v 1.866147 15.372810 -2.864232
v 1.961055 15.234980 -2.068825
v 2.053933 15.100100 -1.768668
v 1.989766 15.193290 -1.759768
v 1.961055 15.234980 -1.450711
v 1.961056 15.234980 -0.184926
v 2.053933 15.100100 0.116749
v 1.866147 15.372810 -1.141722
v 1.866147 15.372810 -0.493917
v 1.989766 15.193290 0.124132
v 1.961056 15.234980 0.433187
v 2.053933 15.100100 1.200368
v 1.960041 15.236460 1.159829
v 1.866148 15.372810 0.742177
v 1.148518 15.236490 1.924472
v 1.866148 15.372810 1.119294
v 0.939753 15.025890 1.710486
v 1.706008 15.372810 1.046183
v 1.706008 15.025870 1.046184
v 0.939753 15.372830 1.710486
v 0.502348 15.025890 1.807273
v 0.502348 15.372840 1.807273
v -0.088063 15.025890 1.850757
v -0.088063 15.372840 1.850757
v -0.678473 15.025890 1.807273
v -0.678473 15.372840 1.807273
v -1.115875 15.025890 1.710487
v -1.115875 15.372830 1.710487
v -1.882130 15.025870 1.046184
v -1.882130 15.372820 1.046184
v -1.882130 15.372820 0.742178
v -1.882130 15.233510 0.429625
v -1.882130 15.025870 -0.052362
v -1.882130 15.193290 0.124132
v -1.882130 15.233510 -0.181363
v -1.882130 15.233510 -1.454271
v -1.882130 15.025870 -1.746856
v -1.882130 15.372810 -1.141722
v -1.882130 15.372810 -0.493916
v -1.882130 15.193290 -1.759767
v -1.882130 15.233510 -2.065263
v -1.882131 15.025870 -2.791122
v -1.882131 15.372810 -2.377816
v -1.882131 15.372810 -2.791122
v -1.115876 15.025880 -3.455425
v -1.115876 15.372830 -3.455425
v -0.678475 15.025890 -3.552212
v -0.678475 15.372840 -3.552212
v -0.088064 15.025890 -3.595696
v -0.088063 15.372840 -3.595696
v 0.502348 15.025890 -3.552212
v 0.502348 15.372840 -3.552212
v 0.939753 15.025880 -3.455426
v 0.939753 15.372830 -3.455426
v 1.706007 15.025870 -2.791123
v 1.706007 15.372810 -2.791123
v 1.706007 15.372810 -2.377816
v 1.706007 15.233510 -2.065263
v 1.706007 15.025870 -1.752606
v 1.706007 15.193290 -1.759768
v 1.706007 15.233510 -1.454271
v 1.706007 15.025870 -0.272956
v 1.706007 15.233510 -0.181365
v 1.706007 15.372810 -0.493917
v 1.706007 15.372810 -1.141722
v 1.706007 15.193290 0.124132
v 1.706008 15.233510 0.429625
v 1.706008 15.025870 1.046184
v 1.706008 15.372810 0.742177
v 1.706008 15.372810 1.046183
v -2.165892 15.193290 -1.759767
v -2.137181 15.234980 -1.450710
v -2.042273 15.372810 -0.493916
v -2.042273 15.372810 -1.141722
v 1.866147 15.372810 -2.377816
v 1.706007 15.372810 -2.377816
v 1.706007 15.233510 -2.065263
v 1.706007 15.372810 -2.791123
v 1.961055 15.234980 -2.068825
v 1.866147 15.372810 -2.864232
v 1.706007 15.193290 -1.759768
v 1.989766 15.193290 -1.759768
v 1.013983 15.372830 -3.603016
v 0.939753 15.372830 -3.455426
v 1.961055 15.234980 -1.450711
v 1.706007 15.233510 -1.454271
v 0.525652 15.372840 -3.711072
v 0.502348 15.372840 -3.552212
v 1.866147 15.372810 -1.141722
v 1.706007 15.372810 -1.141722
v -0.088063 15.372840 -3.756272
v -0.088063 15.372840 -3.595696
v 1.866147 15.372810 -0.493917
v 1.706007 15.372810 -0.493917
v -0.678475 15.372840 -3.552212
v -0.701775 15.372840 -3.711072
v 1.706007 15.233510 -0.181365
v 1.961056 15.234980 -0.184926
v -1.115876 15.372830 -3.455425
v -1.190110 15.372830 -3.603015
v 1.706007 15.193290 0.124132
v 1.989766 15.193290 0.124132
v -1.882131 15.372810 -2.791122
v -2.042273 15.372810 -2.864230
v 1.961056 15.234980 0.433187
v 1.706008 15.233510 0.429625
v -2.042273 15.372810 -2.377816
v -1.882131 15.372810 -2.377816
v 1.866148 15.372810 0.742177
v 1.706008 15.372810 0.742177
v -1.882130 15.233510 -2.065263
v -2.137181 15.234980 -2.068825
v 1.706008 15.372810 1.046183
v 1.866148 15.372810 1.119294
v -1.882130 15.193290 -1.759767
v -2.165892 15.193290 -1.759767
v 1.013984 15.372830 1.858076
v 0.939753 15.372830 1.710486
v -2.137181 15.234980 -1.450710
v -1.882130 15.233510 -1.454271
v 0.525653 15.372840 1.966134
v 0.502348 15.372840 1.807273
v -2.042273 15.372810 -1.141722
v -1.882130 15.372810 -1.141722
v -0.088063 15.372840 1.850757
v -0.088063 15.372840 2.011334
v -2.042273 15.372810 -0.493916
v -1.882130 15.372810 -0.493916
v -0.701774 15.372840 1.966134
v -0.678473 15.372840 1.807273
v -1.882130 15.233510 -0.181363
v -2.137181 15.234980 -0.184925
v -1.115875 15.372830 1.710487
v -1.190110 15.372830 1.858076
v -1.882130 15.193290 0.124132
v -2.165891 15.193290 0.124132
v -1.882130 15.372820 1.046184
v -2.042272 15.372820 1.119295
v -2.137181 15.234980 0.433187
v -1.882130 15.233510 0.429625
v -2.042272 15.372820 0.742178
v -1.882130 15.372820 0.742178
v -0.474578 15.025880 0.985761
v -1.115875 15.025890 1.710487
v -0.678473 15.025890 1.807273
v -0.088063 15.025890 1.850757
v -0.801077 15.025880 0.767600
v -0.089444 15.025880 1.062367
v -1.882130 15.025870 1.046184
v -1.019238 15.025880 0.441099
v 0.295687 15.025880 0.985761
v 0.502348 15.025890 1.807273
v -1.882130 15.025870 -0.052362
v -1.095844 15.025880 0.055968
v 0.939753 15.025890 1.710486
v 0.622185 15.025880 0.767600
v -1.019238 15.025880 -0.329164
v 1.706008 15.025870 1.046184
v 0.840345 15.025880 0.441101
v -0.801077 15.025880 -0.655665
v -1.882130 15.025870 -1.746856
v 1.706007 15.025870 -0.272956
v 0.916955 15.025880 0.055967
v -1.882131 15.025870 -2.791122
v 0.840345 15.025880 -0.329164
v -1.115876 15.025880 -3.455425
v -0.474580 15.025880 -0.873826
v 0.622188 15.025880 -0.655665
v 1.706007 15.025870 -1.752606
v -0.678475 15.025890 -3.552212
v -0.089445 15.025880 -0.950432
v 1.706007 15.025870 -2.791123
v -0.088064 15.025890 -3.595696
v 0.939753 15.025880 -3.455426
v 0.295687 15.025880 -0.873822
v 0.502348 15.025890 -3.552212
v -1.019238 15.025880 0.441099
v -0.089445 10.296080 0.055967
v -1.095844 15.025880 0.055968
v -0.801077 15.025880 0.767600
v -1.019238 15.025880 -0.329164
v -0.474578 15.025880 0.985761
v -0.801077 15.025880 -0.655665
v -0.089444 15.025880 1.062367
v -0.474580 15.025880 -0.873826
v 0.295687 15.025880 0.985761
v -0.089445 15.025880 -0.950432
v 0.622185 15.025880 0.767600
v 0.295687 15.025880 -0.873822
v 0.840345 15.025880 0.441101
v -1.380235 -11.636730 -3.753630
v -0.734226 -11.585670 -3.896584
v -0.734226 -10.995410 -3.896584
v -0.734226 -11.636730 -3.896577
v -0.088218 -11.585670 -3.944272
v -0.088218 -10.995410 -3.944272
v -0.088218 -11.636730 -3.944267
v 0.557795 -11.585670 -3.896727
v 0.557795 -10.995410 -3.896727
v 0.557795 -11.636730 -3.896721
v 0.975791 -11.585670 -3.804235
v 0.972133 -11.636730 -3.805038
v 1.018084 -10.995410 -3.794878
v 1.188905 -11.636730 -3.757071
v 1.203806 -11.585670 -3.753779
v 1.203806 -10.995410 -3.753779
v 1.454868 -10.995390 -3.517141
v 1.454868 -11.585650 -3.517141
v 1.938128 -10.995350 -3.061641
v 1.938128 -11.585610 -3.061641
v 2.000976 -10.995350 -2.725299
v 2.000975 -11.585620 -2.725299
v 1.920548 -10.995350 -2.425142
v 1.920548 -11.585620 -2.425142
v 1.707894 -10.995350 -2.216028
v 1.707894 -11.585620 -2.216027
v 1.418022 -10.995350 -2.111155
v 1.418021 -11.585620 -2.111154
v 1.107577 -10.995350 -2.184726
v 1.107577 -11.585620 -2.184726
v 1.203806 -11.585670 -3.753779
v 0.894275 -11.585610 -3.274234
v 1.188905 -11.636730 -3.757071
v 0.879374 -11.636660 -3.277526
v -1.862286 -10.995400 -3.296552
v -1.980374 -10.995400 -3.184581
v -1.976097 -10.995400 -3.123330
v -1.666963 -10.995350 -2.902891
v -1.597942 -10.995350 -2.912914
v -1.508801 -10.995350 -3.027097
v -1.660774 -10.995410 -3.487627
v -1.312485 -10.995350 -3.186559
v -1.380238 -10.995410 -3.753637
v -1.045377 -10.995350 -3.311141
v -0.734226 -10.995410 -3.896584
v -0.609978 -10.995350 -3.397801
v -0.088218 -10.995410 -3.944272
v -0.127075 -10.995350 -3.413198
v 0.326132 -10.995350 -3.395632
v 0.557795 -10.995410 -3.896727
v 0.753507 -10.995350 -3.337217
v 1.018084 -10.995410 -3.794878
v 0.894275 -10.995350 -3.274234
v 1.203806 -10.995410 -3.753779
v 1.454868 -10.995390 -3.517141
v 0.942054 -10.995350 -3.098546
v 1.938128 -10.995350 -3.061641
v 2.000976 -10.995350 -2.725299
v 1.920548 -10.995350 -2.425142
v 1.707894 -10.995350 -2.216028
v 0.852225 -10.995350 -2.905419
v 1.418022 -10.995350 -2.111155
v 1.107577 -10.995350 -2.184726
v 0.814498 -10.995350 -2.672537
v 0.887846 -10.995350 -2.411314
v 1.203806 -11.585670 -3.753779
v 1.454868 -11.585650 -3.517141
v 0.894275 -11.585610 -3.274234
v 0.942054 -11.585610 -3.098546
v 1.938128 -11.585610 -3.061641
v 2.000975 -11.585620 -2.725299
v 1.920548 -11.585620 -2.425142
v 1.707894 -11.585620 -2.216027
v 0.852225 -11.585620 -2.905419
v 1.418021 -11.585620 -2.111154
v 1.107577 -11.585620 -2.184726
v 0.814498 -11.585620 -2.672537
v 0.887846 -11.585620 -2.411314
v -1.862284 -11.636720 -3.296549
v -1.976095 -11.636710 -3.123327
v -1.980369 -11.636720 -3.184578
v -1.666960 -11.636680 -2.902885
v -1.597940 -11.636670 -2.912911
v -1.508795 -11.636660 -3.027092
v -1.660772 -11.636720 -3.487621
v -1.312482 -11.636660 -3.186557
v -1.380235 -11.636730 -3.753630
v -1.045375 -11.636660 -3.311135
v -0.734226 -11.636730 -3.896577
v -0.609979 -11.636660 -3.397795
v -0.088218 -11.636730 -3.944267
v -0.127075 -11.636660 -3.413192
v 0.326132 -11.636660 -3.395626
v 0.557795 -11.636730 -3.896721
v 0.753507 -11.636660 -3.337212
v 0.972133 -11.636730 -3.805038
v 0.879374 -11.636660 -3.277526
v 1.188905 -11.636730 -3.757071
v -2.233730 -10.993790 -1.451182
v -2.233730 -10.993810 -2.961435
v -1.880595 -10.993770 -1.774106
v -1.693143 -10.993770 -2.168115
v -1.718102 -10.993770 -2.575247
v -1.640219 -10.993770 -2.809582
v -1.380238 -10.993820 -3.777891
v -1.508801 -10.993770 -2.999954
v -1.312485 -10.993770 -3.159418
v -1.045377 -10.993770 -3.284000
v -0.734226 -10.993820 -3.920839
v -0.609978 -10.993770 -3.370657
v -0.088218 -10.993820 -3.968525
v -0.127075 -10.993770 -3.386054
v 0.326132 -10.993770 -3.368488
v 0.557795 -10.993820 -3.920983
v 0.750949 -10.993770 -3.310077
v 1.203806 -10.993820 -3.778036
v 0.876618 -10.993770 -3.250622
v 2.070618 -10.993810 -2.961436
v 0.918394 -10.993770 -3.104601
v 1.966959 -10.993770 -2.405557
v 2.070618 -10.993790 -2.346204
v 1.894417 -10.993770 -2.372581
v 0.542036 -10.993770 -2.454158
v 1.627225 -10.993770 -1.884804
v -2.233730 -10.993790 -1.451182
v -1.880595 -10.993770 -1.774106
v -2.233730 -11.583310 -1.451183
v -1.880596 -11.583320 -1.774105
v -1.693143 -10.993770 -2.168115
v -1.693144 -11.583320 -2.168114
v -1.718102 -10.993770 -2.575247
v -1.718102 -11.583320 -2.575247
v -1.640219 -10.993770 -2.809582
v -1.640219 -11.583320 -2.809582
v -1.508801 -10.993770 -2.999954
v -1.508801 -11.583320 -2.999954
v -1.312485 -10.993770 -3.159418
v -1.312485 -11.583320 -3.159418
v -1.045377 -10.993770 -3.284000
v -1.045377 -11.583320 -3.283999
v -0.609978 -10.993770 -3.370657
v -0.609979 -11.583320 -3.370656
v -0.127075 -10.993770 -3.386054
v -0.127075 -11.583320 -3.386053
v 0.326132 -10.993770 -3.368488
v 0.326132 -11.583320 -3.368488
v 0.750949 -11.583320 -3.310076
v 0.750949 -10.993770 -3.310077
v 0.876618 -10.993770 -3.250622
v 0.876618 -11.583320 -3.250622
v 0.918394 -10.993770 -3.104601
v 0.918394 -11.583320 -3.104598
v 0.542036 -10.993770 -2.454158
v 0.541606 -11.583320 -2.453411
v 0.541606 -11.583320 -2.453411
v 0.542036 -10.993770 -2.454158
v 1.627168 -11.583550 -1.885024
v 1.627225 -10.993770 -1.884804
v 1.627168 -11.583550 -1.885024
v 1.627225 -10.993770 -1.884804
v 1.894417 -11.583320 -2.372581
v 1.894417 -10.993770 -2.372581
v 1.966959 -10.993770 -2.405557
v 1.966959 -11.583320 -2.405557
v 2.070618 -10.993790 -2.346204
v 2.070618 -11.583320 -2.346204
v 1.204585 -11.583310 2.032925
v 0.558367 -11.583310 2.175920
v -0.087853 -11.583310 2.223589
v -0.734071 -11.583310 2.175937
v -1.380290 -11.583310 2.032942
v -2.233730 -11.583310 1.216500
v 2.070619 -11.583310 1.216499
v 1.627168 -11.583550 -1.885024
v -2.233730 -11.583310 -1.451183
v 1.894417 -11.583320 -2.372581
v 2.070618 -11.583320 -2.346204
v 0.541606 -11.583320 -2.453411
v -1.880596 -11.583320 -1.774105
v 1.966959 -11.583320 -2.405557
v -1.693144 -11.583320 -2.168114
v -1.718102 -11.583320 -2.575247
v -1.640219 -11.583320 -2.809582
v -1.508801 -11.583320 -2.999954
v -1.312485 -11.583320 -3.159418
v -1.045377 -11.583320 -3.283999
v -0.609979 -11.583320 -3.370656
v -0.127075 -11.583320 -3.386053
v 0.326132 -11.583320 -3.368488
v 0.750949 -11.583320 -3.310076
v 0.876618 -11.583320 -3.250622
v 0.918394 -11.583320 -3.104598
v 2.070618 -11.583320 -2.346204
v 2.070618 -10.993790 -2.346204
v 2.070619 -11.583310 1.216499
v 2.070619 -5.287808 1.216521
v 2.070619 -5.287811 -2.961437
v 2.070618 -10.993810 -2.961436
v 1.204122 -5.287808 2.033009
v 1.204585 -11.583310 2.032925
v 1.194129 -5.109619 2.010547
v 2.053931 -5.109620 1.200367
v 0.558017 -5.287808 2.175979
v 2.053931 -5.109626 -2.945287
v 0.558367 -11.583310 2.175920
v -0.088089 -5.287808 2.223569
v 0.553021 -5.109619 2.152411
v 1.086224 15.100130 2.034418
v 0.552978 15.100130 2.152413
v -0.087853 -11.583310 2.223589
v 2.053932 15.100100 -2.945307
v -0.088063 15.100130 2.199627
v -0.088089 -5.109619 2.199633
v -0.734195 -5.287808 2.175888
v -0.729199 -5.109619 2.152323
v 1.013984 15.372830 1.858076
v 0.525653 15.372840 1.966134
v -0.088063 15.372840 2.011334
v -0.734071 -11.583310 2.175937
v -0.729100 15.100130 2.152413
v -0.701774 15.372840 1.966134
v -1.380298 -5.287808 2.032921
v -1.370307 -5.109619 2.010459
v -1.262349 15.100130 2.034420
v -1.190110 15.372830 1.858076
v -1.380290 -11.583310 2.032942
v -2.233729 -5.287807 1.216521
v -2.230055 15.100100 1.200368
v -2.217277 -5.109618 1.200369
v -1.324642 15.236490 1.924473
v -2.042272 15.372820 1.119295
v -2.136166 15.236460 1.159830
v -2.042272 15.372820 0.742178
v -2.137181 15.234980 0.433187
v -2.165891 15.193290 0.124132
v 0.622188 15.025880 -0.655665
v 0.916955 15.025880 0.055967
v 0.840345 15.025880 -0.329164
# 743 vertices

vt 0.439000 0.013700
vt 0.439000 0.052200
vt 0.432900 0.013700
vt 0.432900 0.052200
vt 0.432900 0.057100
vt 0.439000 0.057100
vt 0.432900 0.052200
vt 0.405500 0.052200
vt 0.432900 0.013700
vt 0.432900 0.057100
vt 0.405500 0.013700
vt 0.405500 0.057100
vt 0.377000 0.052200
vt 0.377000 0.057100
vt 0.377000 0.013700
vt 0.360400 0.052200
vt 0.360400 0.057100
vt 0.360400 0.013700
vt 0.336400 0.052200
vt 0.336400 0.057100
vt 0.336400 0.013700
vt 0.314500 0.052200
vt 0.314500 0.057100
vt 0.314500 0.013700
vt 0.314500 0.052200
vt 0.307900 0.013700
vt 0.314500 0.013700
vt 0.307900 0.052200
vt 0.314500 0.057100
vt 0.307900 0.057100
vt 0.307900 0.052200
vt 0.291300 0.052200
vt 0.307900 0.013700
vt 0.307900 0.057100
vt 0.291300 0.013700
vt 0.291300 0.057100
vt 0.285400 0.052200
vt 0.291300 0.013700
vt 0.291300 0.052200
vt 0.285400 0.057100
vt 0.291300 0.057100
vt 0.285400 0.013700
vt 0.285400 0.052200
vt 0.267600 0.052200
vt 0.285400 0.013700
vt 0.285400 0.057100
vt 0.267600 0.057100
vt 0.267600 0.013700
vt 0.243700 0.052200
vt 0.243700 0.057100
vt 0.243700 0.013700
vt 0.227200 0.013700
vt 0.227200 0.052200
vt 0.227200 0.057100
vt 0.198700 0.013700
vt 0.198700 0.052200
vt 0.198700 0.057100
vt 0.169900 0.013700
vt 0.169900 0.052200
vt 0.169900 0.057100
vt 0.167700 0.013700
vt 0.167700 0.052200
vt 0.167700 0.057100
vt 0.167700 0.052200
vt 0.162400 0.052200
vt 0.167700 0.013700
vt 0.167700 0.057100
vt 0.162400 0.013700
vt 0.162400 0.057100
vt 0.162400 0.052200
vt 0.147900 0.052200
vt 0.162400 0.013700
vt 0.162400 0.057100
vt 0.147900 0.013700
vt 0.147900 0.057100
vt 0.142600 0.052200
vt 0.147900 0.013700
vt 0.147900 0.052200
vt 0.142600 0.057100
vt 0.147900 0.057100
vt 0.142600 0.013700
vt 0.142600 0.013700
vt 0.142600 0.052200
vt 0.137200 0.013700
vt 0.142600 0.057100
vt 0.137200 0.052200
vt 0.137200 0.057100
vt 0.113400 0.013700
vt 0.113400 0.052200
vt 0.113400 0.057100
vt 0.085300 0.013700
vt 0.085300 0.052200
vt 0.085300 0.057100
vt 0.057000 0.013700
vt 0.057000 0.052200
vt 0.057000 0.057100
vt 0.033200 0.013700
vt 0.033200 0.052200
vt 0.033200 0.057100
vt 0.026400 0.052200
vt 0.026400 0.057100
vt 0.026400 0.013700
vt 0.026400 0.052200
vt 0.022500 0.052200
vt 0.026400 0.013700
vt 0.026400 0.057100
vt 0.022500 0.057100
vt 0.022500 0.013700
vt 0.022500 0.052200
vt 0.005100 0.052200
vt 0.022500 0.013700
vt 0.022500 0.057100
vt 0.005100 0.057100
vt 0.005100 0.013700
vt 0.114600 0.240700
vt 0.113100 0.241700
vt 0.110700 0.234400
vt 0.105300 0.223100
vt 0.129800 0.223100
vt 0.083100 0.227500
vt 0.083100 0.248000
vt 0.124000 0.210400
vt 0.132900 0.228500
vt 0.060900 0.223100
vt 0.053000 0.242200
vt 0.138500 0.225100
vt 0.027600 0.225100
vt 0.042100 0.210400
vt 0.155500 0.199700
vt 0.136600 0.191400
vt 0.010600 0.199700
vt 0.029600 0.191400
vt 0.161500 0.169400
vt 0.141000 0.169400
vt 0.007300 0.183100
vt 0.155500 0.139600
vt 0.136600 0.147500
vt 0.013100 0.183100
vt 0.025200 0.169400
vt 0.138500 0.114300
vt 0.124000 0.128400
vt 0.013100 0.161100
vt 0.029600 0.147500
vt 0.125500 0.113300
vt 0.128700 0.107400
vt 0.105300 0.115700
vt 0.106400 0.102100
vt 0.083100 0.111300
vt 0.010600 0.139600
vt 0.006400 0.161100
vt 0.027600 0.114300
vt 0.042100 0.128400
vt 0.053000 0.097200
vt 0.083100 0.090800
vt 0.109700 0.096200
vt 0.060900 0.115700
vt 0.062100 0.123500
vt 0.081400 0.120100
vt 0.045800 0.134800
vt 0.100600 0.123500
vt 0.117000 0.134800
vt 0.127900 0.150900
vt 0.131700 0.170400
vt 0.127900 0.189500
vt 0.117000 0.206100
vt 0.100600 0.216800
vt 0.081400 0.220700
vt 0.062100 0.216800
vt 0.045800 0.206100
vt 0.034900 0.189500
vt 0.031000 0.170400
vt 0.034900 0.150900
vt 0.125200 0.065400
vt 0.136800 0.065400
vt 0.125200 0.099600
vt 0.136800 0.099600
vt 0.154300 0.065400
vt 0.154300 0.099600
vt 0.174800 0.065400
vt 0.174800 0.099600
vt 0.195200 0.065400
vt 0.195200 0.099600
vt 0.206800 0.065400
vt 0.206800 0.099600
vt 0.224200 0.065400
vt 0.224200 0.099600
vt 0.244800 0.065400
vt 0.244800 0.099600
vt 0.265100 0.065400
vt 0.265100 0.099600
vt 0.276900 0.065400
vt 0.276900 0.099600
vt 0.294200 0.065400
vt 0.294200 0.099600
vt 0.314700 0.065400
vt 0.314700 0.099600
vt 0.335200 0.065400
vt 0.335200 0.099600
vt 0.352500 0.065400
vt 0.352500 0.099600
vt 0.364000 0.065400
vt 0.364000 0.099600
vt 0.384500 0.065400
vt 0.384500 0.099600
vt 0.405000 0.065400
vt 0.405000 0.099600
vt 0.679700 0.051800
vt 0.683600 0.048800
vt 0.683600 0.051800
vt 0.679700 0.048800
vt 0.683600 0.015100
vt 0.679700 0.015100
vt 0.662100 0.048800
vt 0.662100 0.015100
vt 0.662100 0.051800
vt 0.658200 0.051800
vt 0.658200 0.048800
vt 0.658200 0.015100
vt 0.653300 0.051800
vt 0.653300 0.048800
vt 0.653300 0.015100
vt 0.642100 0.051800
vt 0.642100 0.048800
vt 0.642100 0.015100
vt 0.627000 0.051800
vt 0.627000 0.048800
vt 0.627000 0.015100
vt 0.602100 0.051800
vt 0.602100 0.048800
vt 0.602100 0.015100
vt 0.574700 0.051800
vt 0.574700 0.048800
vt 0.574700 0.015100
vt 0.548800 0.051800
vt 0.548800 0.048800
vt 0.548800 0.015100
vt 0.524400 0.051800
vt 0.524400 0.048800
vt 0.524400 0.015100
vt 0.517100 0.051800
vt 0.516100 0.048800
vt 0.516100 0.015100
vt 0.506300 0.048800
vt 0.506300 0.015100
vt 0.495100 0.048800
vt 0.495100 0.015100
vt 0.481900 0.048800
vt 0.481900 0.015100
vt 0.467000 0.048800
vt 0.467000 0.015100
vt 0.454100 0.048800
vt 0.454100 0.015100
vt 0.683600 0.051800
vt 0.683600 0.048800
vt 0.689900 0.051800
vt 0.689900 0.048800
vt 0.683600 0.015100
vt 0.689900 0.015100
vt 0.700700 0.048800
vt 0.700700 0.015100
vt 0.700700 0.051800
vt 0.715800 0.048800
vt 0.715800 0.015100
vt 0.944300 0.711200
vt 0.950700 0.723100
vt 0.944300 0.778600
vt 0.006400 0.769800
vt 0.006400 0.676300
vt 0.027700 0.769800
vt 0.226600 0.821400
vt 0.027700 0.821400
vt 0.226600 0.863800
vt 0.233900 0.863800
vt 0.233900 0.821400
vt 0.944300 0.865100
vt 0.944300 0.821400
vt 0.027700 0.863800
vt 0.027700 0.885700
vt 0.226600 0.885700
vt 0.944300 0.885700
vt 0.233900 0.885700
vt 0.951200 0.861200
vt 0.951200 0.885700
vt 0.944300 0.908500
vt 0.027700 0.908500
vt 0.226600 0.908500
vt 0.233900 0.908500
vt 0.951200 0.821400
vt 0.957500 0.821400
vt 0.957500 0.864100
vt 0.027700 0.931200
vt 0.226600 0.931200
vt 0.233900 0.931200
vt 0.944300 0.931200
vt 0.951200 0.931200
vt 0.951200 0.908500
vt 0.957500 0.801400
vt 0.951200 0.789800
vt 0.944300 0.955400
vt 0.233900 0.955400
vt 0.027700 0.955400
vt 0.226600 0.955400
vt 0.226600 0.995700
vt 0.944300 0.995700
vt 0.951200 0.952700
vt 0.957500 0.931200
vt 0.957500 0.949800
vt 0.233900 0.995700
vt 0.027700 0.995700
vt 0.951200 0.993800
vt 0.957500 0.990700
vt 0.957500 0.908500
vt 0.957500 0.885700
vt 0.957500 0.375000
vt 0.950200 0.356000
vt 0.957500 0.357900
vt 0.950200 0.386200
vt 0.944300 0.396500
vt 0.948700 0.397000
vt 0.950200 0.407700
vt 0.950200 0.452100
vt 0.944300 0.462900
vt 0.957500 0.418900
vt 0.957500 0.441400
vt 0.948700 0.463400
vt 0.950700 0.474100
vt 0.944300 0.501200
vt 0.950700 0.501500
vt 0.957500 0.486300
vt 0.950700 0.542200
vt 0.957500 0.502200
vt 0.977100 0.960200
vt 0.991700 0.992800
vt 0.977100 0.992800
vt 0.991700 0.960200
vt 0.977100 0.941500
vt 0.991700 0.941500
vt 0.976600 0.916300
vt 0.991700 0.916300
vt 0.976600 0.891200
vt 0.991700 0.891200
vt 0.976600 0.872600
vt 0.991700 0.872600
vt 0.976600 0.839800
vt 0.991700 0.839800
vt 0.991700 0.826900
vt 0.985800 0.813600
vt 0.976600 0.793000
vt 0.983900 0.800500
vt 0.985800 0.787500
vt 0.985800 0.733200
vt 0.976600 0.720700
vt 0.991700 0.746600
vt 0.991700 0.774200
vt 0.983900 0.720200
vt 0.985800 0.707300
vt 0.976600 0.676300
vt 0.991700 0.693800
vt 0.991700 0.676300
vt 0.976600 0.643600
vt 0.991700 0.643600
vt 0.976600 0.625000
vt 0.991700 0.625000
vt 0.976600 0.599900
vt 0.991200 0.599600
vt 0.976600 0.574500
vt 0.991200 0.574500
vt 0.976600 0.555900
vt 0.991200 0.555900
vt 0.976600 0.523200
vt 0.991200 0.523200
vt 0.991200 0.505600
vt 0.984900 0.492200
vt 0.976100 0.479000
vt 0.983400 0.479000
vt 0.984900 0.466300
vt 0.976100 0.416000
vt 0.984900 0.412100
vt 0.990700 0.425300
vt 0.990700 0.452600
vt 0.982900 0.398900
vt 0.984900 0.385700
vt 0.975600 0.359900
vt 0.990700 0.372600
vt 0.990700 0.359400
vt 0.949200 0.778400
vt 0.951200 0.767600
vt 0.957500 0.734100
vt 0.957500 0.756700
vt 0.750500 0.128400
vt 0.758300 0.128400
vt 0.758300 0.144000
vt 0.758300 0.107400
vt 0.745600 0.144000
vt 0.750500 0.103500
vt 0.758300 0.159700
vt 0.744100 0.159700
vt 0.793500 0.065900
vt 0.797400 0.073700
vt 0.745600 0.175300
vt 0.758300 0.175300
vt 0.818400 0.060500
vt 0.819300 0.068800
vt 0.750500 0.190900
vt 0.758300 0.190900
vt 0.849600 0.058100
vt 0.849600 0.066400
vt 0.750500 0.223600
vt 0.758300 0.223600
vt 0.879400 0.068800
vt 0.880400 0.060500
vt 0.758300 0.239700
vt 0.745600 0.239300
vt 0.901900 0.073700
vt 0.905300 0.065900
vt 0.758300 0.255400
vt 0.744100 0.255400
vt 0.940400 0.107400
vt 0.948700 0.103500
vt 0.745600 0.271000
vt 0.758300 0.270500
vt 0.948700 0.128400
vt 0.940400 0.128400
vt 0.750500 0.286600
vt 0.758300 0.286600
vt 0.940400 0.144000
vt 0.953600 0.144000
vt 0.758300 0.301800
vt 0.750500 0.305700
vt 0.940400 0.159700
vt 0.955100 0.159700
vt 0.793500 0.343300
vt 0.797400 0.335400
vt 0.953600 0.175300
vt 0.940400 0.175300
vt 0.818400 0.348600
vt 0.819300 0.340300
vt 0.948700 0.190900
vt 0.940400 0.190900
vt 0.849600 0.342800
vt 0.849600 0.351100
vt 0.948700 0.223600
vt 0.940400 0.223600
vt 0.880400 0.348600
vt 0.879400 0.340300
vt 0.940400 0.239700
vt 0.953600 0.239300
vt 0.901900 0.335400
vt 0.905300 0.343300
vt 0.940400 0.255400
vt 0.955100 0.255400
vt 0.940400 0.301800
vt 0.948700 0.305700
vt 0.953600 0.271000
vt 0.940400 0.270500
vt 0.948700 0.286600
vt 0.940400 0.286600
vt 0.865700 0.291500
vt 0.895000 0.324700
vt 0.875000 0.329600
vt 0.847700 0.331500
vt 0.880900 0.281200
vt 0.847700 0.294900
vt 0.930700 0.293900
vt 0.890600 0.266100
vt 0.830100 0.291500
vt 0.820300 0.329600
vt 0.930700 0.243200
vt 0.894500 0.248000
vt 0.800300 0.324700
vt 0.814900 0.281200
vt 0.890600 0.230500
vt 0.764600 0.293900
vt 0.804700 0.266100
vt 0.880900 0.215300
vt 0.930700 0.165000
vt 0.764600 0.232900
vt 0.801300 0.248000
vt 0.930700 0.116200
vt 0.804700 0.230500
vt 0.895000 0.085900
vt 0.865700 0.205100
vt 0.814900 0.215300
vt 0.764600 0.164600
vt 0.875000 0.081100
vt 0.847700 0.201700
vt 0.764600 0.116200
vt 0.847700 0.079100
vt 0.800300 0.085900
vt 0.830100 0.205100
vt 0.820300 0.081100
vt 0.888700 0.265100
vt 0.847700 0.248000
vt 0.892100 0.248000
vt 0.878900 0.279800
vt 0.888700 0.231400
vt 0.864700 0.289100
vt 0.878900 0.216800
vt 0.847700 0.292500
vt 0.864700 0.207500
vt 0.830600 0.289100
vt 0.847700 0.204100
vt 0.816400 0.279800
vt 0.830600 0.207500
vt 0.806600 0.265100
vt 0.715800 0.051800
vt 0.752900 0.048800
vt 0.752900 0.015100
vt 0.752900 0.051800
vt 0.789600 0.048800
vt 0.789600 0.015100
vt 0.789600 0.051800
vt 0.826700 0.048800
vt 0.826700 0.015100
vt 0.826700 0.051800
vt 0.850100 0.048800
vt 0.850100 0.051800
vt 0.852500 0.015100
vt 0.862300 0.051800
vt 0.863300 0.048800
vt 0.863300 0.015100
vt 0.877400 0.015100
vt 0.877400 0.048800
vt 0.905300 0.015100
vt 0.905300 0.048800
vt 0.924300 0.015100
vt 0.924300 0.048800
vt 0.941400 0.015100
vt 0.941400 0.048800
vt 0.953600 0.015100
vt 0.953600 0.048800
vt 0.970200 0.015100
vt 0.970200 0.048800
vt 0.987800 0.015100
vt 0.987800 0.048800
vt 0.498500 0.048800
vt 0.516100 0.048800
vt 0.499500 0.051800
vt 0.517100 0.051800
vt 0.330600 0.246600
vt 0.337400 0.252900
vt 0.337200 0.256300
vt 0.319600 0.269000
vt 0.315700 0.268100
vt 0.310500 0.261700
vt 0.319100 0.235400
vt 0.299300 0.252400
vt 0.303200 0.220200
vt 0.283900 0.245600
vt 0.266400 0.212400
vt 0.259300 0.240700
vt 0.229500 0.209500
vt 0.231700 0.239700
vt 0.205800 0.240700
vt 0.192600 0.212400
vt 0.181400 0.244100
vt 0.166400 0.217800
vt 0.173500 0.247600
vt 0.155800 0.220200
vt 0.141500 0.233900
vt 0.170700 0.257800
vt 0.113900 0.259800
vt 0.110300 0.278800
vt 0.114900 0.295900
vt 0.127100 0.308100
vt 0.175800 0.268600
vt 0.143600 0.314000
vt 0.161300 0.309600
vt 0.178000 0.282200
vt 0.173800 0.296900
vt 0.349900 0.124000
vt 0.369100 0.127900
vt 0.349400 0.156700
vt 0.356900 0.164100
vt 0.406200 0.135700
vt 0.419400 0.149900
vt 0.424600 0.167000
vt 0.420400 0.183600
vt 0.358400 0.175800
vt 0.409700 0.197300
vt 0.392300 0.203100
vt 0.363500 0.188500
vt 0.375000 0.198700
vt 0.179900 0.180700
vt 0.175400 0.191400
vt 0.174600 0.188000
vt 0.195100 0.200700
vt 0.198900 0.199200
vt 0.202600 0.191900
vt 0.189300 0.168000
vt 0.211900 0.181200
vt 0.202300 0.149900
vt 0.225600 0.171400
vt 0.237100 0.135300
vt 0.249100 0.162100
vt 0.272700 0.126000
vt 0.276100 0.156200
vt 0.301800 0.152300
vt 0.309600 0.122100
vt 0.326200 0.151400
vt 0.333700 0.122600
vt 0.334000 0.153300
vt 0.346200 0.123000
vt 0.323000 0.349600
vt 0.323000 0.279800
vt 0.339400 0.335000
vt 0.348100 0.316400
vt 0.346900 0.297900
vt 0.350600 0.287100
vt 0.362500 0.242200
vt 0.356700 0.277800
vt 0.365700 0.270500
vt 0.378200 0.265100
vt 0.392600 0.235400
vt 0.398200 0.260700
vt 0.422400 0.233400
vt 0.420700 0.260300
vt 0.441700 0.261200
vt 0.452400 0.235400
vt 0.461200 0.263700
vt 0.482200 0.242200
vt 0.467000 0.266600
vt 0.522500 0.280300
vt 0.469000 0.273400
vt 0.517600 0.306200
vt 0.522500 0.309100
vt 0.514200 0.307600
vt 0.451700 0.303200
vt 0.502000 0.330100
vt 0.994600 0.075200
vt 0.994600 0.088400
vt 0.970200 0.075200
vt 0.970200 0.088400
vt 0.994600 0.104500
vt 0.970200 0.104500
vt 0.994600 0.121600
vt 0.970200 0.121600
vt 0.994600 0.130900
vt 0.970200 0.130900
vt 0.994600 0.136700
vt 0.970200 0.136700
vt 0.994600 0.144500
vt 0.970200 0.144500
vt 0.994600 0.155800
vt 0.970200 0.155800
vt 0.994600 0.173800
vt 0.970200 0.173800
vt 0.994600 0.193400
vt 0.970200 0.193400
vt 0.994600 0.212400
vt 0.970200 0.212400
vt 0.970200 0.230000
vt 0.994600 0.230000
vt 0.994600 0.234900
vt 0.970200 0.234900
vt 0.994600 0.241200
vt 0.970200 0.241200
vt 0.994600 0.268100
vt 0.970200 0.268100
vt 0.970200 0.268100
vt 0.994600 0.268100
vt 0.970200 0.312500
vt 0.994600 0.312500
vt 0.970200 0.312500
vt 0.994600 0.312500
vt 0.970200 0.333000
vt 0.994600 0.333000
vt 0.994600 0.335900
vt 0.970200 0.335900
vt 0.994600 0.340300
vt 0.970200 0.340300
vt 0.694300 0.331500
vt 0.664600 0.338400
vt 0.634800 0.340300
vt 0.605000 0.338400
vt 0.574700 0.331500
vt 0.535200 0.293900
vt 0.734900 0.293900
vt 0.714400 0.150400
vt 0.535200 0.170400
vt 0.726600 0.127900
vt 0.734900 0.128900
vt 0.664100 0.124000
vt 0.551800 0.155300
vt 0.730000 0.126500
vt 0.560500 0.137200
vt 0.559100 0.118200
vt 0.563000 0.107400
vt 0.568800 0.098600
vt 0.578100 0.091300
vt 0.590300 0.085400
vt 0.610400 0.081500
vt 0.632800 0.081100
vt 0.653800 0.081500
vt 0.673300 0.084500
vt 0.679200 0.086900
vt 0.681200 0.093800
vt 0.006400 0.376500
vt 0.026500 0.376500
vt 0.006400 0.501500
vt 0.226600 0.501700
vt 0.226600 0.355000
vt 0.026500 0.355000
vt 0.226600 0.544400
vt 0.006400 0.544400
vt 0.233900 0.544400
vt 0.233900 0.501200
vt 0.226600 0.565700
vt 0.233900 0.355000
vt 0.006400 0.565700
vt 0.226600 0.588400
vt 0.233900 0.565700
vt 0.944300 0.544400
vt 0.944300 0.565700
vt 0.006400 0.588400
vt 0.944300 0.355000
vt 0.944300 0.588400
vt 0.233900 0.588400
vt 0.226600 0.611100
vt 0.233900 0.611100
vt 0.957500 0.544900
vt 0.957500 0.565700
vt 0.957500 0.588400
vt 0.006400 0.611100
vt 0.944300 0.611100
vt 0.957500 0.611100
vt 0.226600 0.632300
vt 0.233900 0.632300
vt 0.944300 0.632300
vt 0.957500 0.630600
vt 0.006400 0.632300
vt 0.226600 0.675800
vt 0.944300 0.674600
vt 0.233900 0.676000
vt 0.949700 0.633500
vt 0.957500 0.674600
vt 0.950700 0.674600
vt 0.957500 0.689200
vt 0.951200 0.700900
vt 0.949200 0.712400
vt 0.816400 0.216800
vt 0.803200 0.248000
vt 0.806600 0.231400
# 743 UVs

vn 0.866019 0.000000 0.500011
vn 0.844902 -0.219301 0.487901
vn 0.866019 0.000000 0.500011
vn 0.854615 -0.161803 0.493409
vn 0.797878 -0.388789 0.460688
vn 0.797878 -0.388789 0.460688
vn 0.192700 -0.154600 -0.969002
vn 0.000600 -0.188899 -0.981996
vn 0.195108 0.009000 -0.980741
vn 0.180101 -0.385401 -0.905003
vn -0.001000 0.007700 -0.999970
vn 0.001200 -0.386411 -0.922326
vn -0.375218 -0.191009 -0.907043
vn -0.352198 -0.387598 -0.851895
vn -0.383803 0.004100 -0.923406
vn -0.693414 -0.193704 -0.694014
vn -0.650994 -0.388897 -0.651894
vn -0.708106 0.000000 -0.706106
vn -0.905793 -0.196699 -0.375297
vn -0.850734 -0.390215 -0.352114
vn -0.924351 -0.004200 -0.381521
vn -0.966499 -0.170000 -0.192300
vn -0.903159 -0.389982 -0.179492
vn -0.980766 -0.006000 -0.195093
vn 0.000000 -0.165194 0.986261
vn 0.000000 0.000000 1.000000
vn 0.000000 0.000000 1.000000
vn 0.000000 -0.219196 0.975681
vn 0.000000 -0.388808 0.921319
vn 0.000000 -0.388808 0.921319
vn -0.975681 -0.219196 0.000000
vn -0.975681 -0.219196 0.000000
vn -1.000000 0.000000 0.000000
vn -0.921319 -0.388808 0.000000
vn -1.000000 0.000000 0.000000
vn -0.921319 -0.388808 0.000000
vn 0.000000 -0.164999 -0.986294
vn 0.000000 0.000000 -1.000000
vn 0.000000 -0.219291 -0.975660
vn 0.000000 -0.388808 -0.921319
vn 0.000000 -0.388893 -0.921283
vn 0.000000 0.000000 -1.000000
vn -0.966151 -0.172091 0.192190
vn -0.905289 -0.200698 0.374396
vn -0.980741 -0.009000 0.195108
vn -0.902889 -0.390696 0.179298
vn -0.850346 -0.392221 0.350819
vn -0.923645 -0.010000 0.383119
vn -0.692704 -0.200801 0.692704
vn -0.650503 -0.392202 0.650403
vn -0.707065 -0.010899 0.707065
vn -0.383119 -0.010000 0.923645
vn -0.374811 -0.200206 0.905226
vn -0.351797 -0.391896 0.850092
vn -0.001000 -0.007700 0.999970
vn 0.000300 -0.198692 0.980062
vn 0.000500 -0.391407 0.920217
vn 0.381521 -0.004200 0.924351
vn 0.375981 -0.198790 0.905053
vn 0.356981 -0.393779 0.847055
vn 0.555576 -0.002100 0.831463
vn 0.547016 -0.175005 0.818625
vn 0.516703 -0.387402 0.763504
vn 0.852930 -0.173306 -0.492418
vn 0.844991 -0.219198 -0.487795
vn 0.866019 0.000000 -0.500011
vn 0.797915 -0.388807 -0.460609
vn 0.866019 0.000000 -0.500011
vn 0.797878 -0.388789 -0.460688
vn 0.487836 -0.219216 0.844962
vn 0.487825 -0.219311 0.844943
vn 0.500011 0.000000 0.866019
vn 0.460688 -0.388789 0.797878
vn 0.500011 0.000000 0.866019
vn 0.460688 -0.388789 0.797878
vn -0.853494 -0.169699 0.492697
vn -0.866044 0.000000 0.499968
vn -0.844972 -0.219293 0.487784
vn -0.797884 -0.388892 0.460591
vn -0.797884 -0.388892 0.460591
vn -0.866087 0.000000 0.499893
vn 0.555576 -0.002100 0.831463
vn 0.547299 -0.171400 0.819198
vn 0.706156 0.000000 0.708056
vn 0.511105 -0.388104 0.766908
vn 0.693504 -0.195201 0.693504
vn 0.649978 -0.390787 0.651778
vn 0.923406 0.004100 0.383803
vn 0.906992 -0.191098 0.375297
vn 0.851807 -0.387603 0.352403
vn 0.999970 0.007700 0.001000
vn 0.982034 -0.188706 -0.000300
vn 0.922291 -0.386496 -0.000400
vn 0.924022 0.010000 -0.382209
vn 0.907477 -0.187195 -0.376090
vn 0.852267 -0.385785 -0.353286
vn 0.707065 0.010899 -0.707065
vn 0.694215 -0.187504 -0.694915
vn 0.651188 -0.386393 -0.653188
vn 0.548213 -0.162404 -0.820419
vn 0.512403 -0.384402 -0.767905
vn 0.555522 0.010700 -0.831433
vn -0.853280 -0.170796 -0.492689
vn -0.844921 -0.219205 -0.487912
vn -0.866019 0.000000 -0.500011
vn -0.797878 -0.388789 -0.460688
vn -0.797878 -0.388789 -0.460688
vn -0.866019 0.000000 -0.500011
vn 0.487795 -0.219198 -0.844991
vn 0.487784 -0.219293 -0.844972
vn 0.500011 0.000000 -0.866019
vn 0.460609 -0.388807 -0.797915
vn 0.460591 -0.388892 -0.797884
vn 0.500011 0.000000 -0.866019
vn 0.000000 -1.000000 0.000000
vn 0.000000 -1.000000 0.000000
vn 0.000000 -1.000000 0.000000
vn 0.000000 -1.000000 0.000000
vn 0.000000 -1.000000 0.000000
vn 0.000000 -1.000000 0.000000
vn 0.000000 -1.000000 0.000000
vn 0.000000 -1.000000 0.000000
vn 0.000000 -1.000000 0.000000
vn 0.000000 -1.000000 0.000000
vn 0.000000 -1.000000 0.000000
vn 0.000000 -1.000000 0.000000
vn 0.000000 -1.000000 0.000000
vn 0.000000 -1.000000 0.000000
vn 0.000000 -1.000000 0.000000
vn 0.000000 -1.000000 0.000000
vn 0.000000 -1.000000 0.000000
vn 0.000000 -1.000000 0.000000
vn 0.000000 -1.000000 0.000000
vn 0.000000 -1.000000 0.000000
vn 0.000000 -1.000000 0.000000
vn 0.000000 -1.000000 0.000000
vn 0.000000 -1.000000 0.000000
vn 0.000000 -1.000000 0.000000
vn 0.000000 -1.000000 0.000000
vn 0.000000 -1.000000 0.000000
vn 0.000000 -1.000000 0.000000
vn 0.000000 -1.000000 0.000000
vn 0.000000 -1.000000 0.000000
vn 0.000000 -1.000000 0.000000
vn 0.000000 -1.000000 0.000000
vn 0.000000 -1.000000 0.000000
vn 0.000000 -1.000000 0.000000
vn 0.000000 -1.000000 0.000000
vn 0.000000 -1.000000 0.000000
vn 0.000000 -1.000000 0.000000
vn 0.000000 -1.000000 0.000000
vn 0.000000 -1.000000 0.000000
vn 0.000000 -1.000000 0.000000
vn 0.000000 -1.000000 0.000000
vn 0.000000 -1.000000 0.000000
vn 0.000000 -1.000000 0.000000
vn 0.000000 -1.000000 0.000000
vn 0.000000 -1.000000 0.000000
vn 0.000000 -1.000000 0.000000
vn 0.000000 -1.000000 0.000000
vn 0.000000 -1.000000 0.000000
vn 0.000000 -1.000000 0.000000
vn 0.000000 -1.000000 0.000000
vn 0.000000 -1.000000 0.000000
vn 0.000000 -1.000000 0.000000
vn 0.000000 -1.000000 0.000000
vn 0.000000 -1.000000 0.000000
vn 0.000000 -1.000000 0.000000
vn 0.000000 -1.000000 0.000000
vn 0.000000 -1.000000 0.000000
vn 0.000000 -1.000000 0.000000
vn 0.000000 -1.000000 0.000000
vn -0.555577 0.000000 0.831465
vn -0.707107 0.000000 0.707107
vn -0.555577 0.000000 0.831465
vn -0.707107 0.000000 0.707107
vn -0.923877 0.000000 0.382690
vn -0.923877 0.000000 0.382690
vn -1.000000 0.000000 0.000000
vn -1.000000 0.000000 0.000000
vn -0.923877 0.000000 -0.382690
vn -0.923877 0.000000 -0.382690
vn -0.707107 0.000000 -0.707107
vn -0.707107 0.000000 -0.707107
vn -0.382690 0.000000 -0.923877
vn -0.382690 0.000000 -0.923877
vn 0.000000 0.000000 -1.000000
vn 0.000000 0.000000 -1.000000
vn 0.382690 0.000000 -0.923877
vn 0.382690 0.000000 -0.923877
vn 0.707107 0.000000 -0.707107
vn 0.707107 0.000000 -0.707107
vn 0.923877 0.000000 -0.382690
vn 0.923877 0.000000 -0.382690
vn 1.000000 0.000000 0.000000
vn 1.000000 0.000000 0.000000
vn 0.923877 0.000000 0.382690
vn 0.923877 0.000000 0.382690
vn 0.707107 0.000000 0.707107
vn 0.707107 0.000000 0.707107
vn 0.382690 0.000000 0.923877
vn 0.382690 0.000000 0.923877
vn 0.000000 0.000000 1.000000
vn 0.000000 0.000000 1.000000
vn -0.195097 0.000000 0.980784
vn -0.195097 0.000000 0.980784
vn -0.872506 0.000000 0.488603
vn -0.997575 0.000000 0.069598
vn -0.997575 -0.000100 0.069598
vn -0.872506 0.000000 0.488603
vn -0.997568 0.000000 0.069698
vn -0.872463 0.000000 0.488680
vn -0.235400 0.000000 0.971899
vn -0.235400 0.000000 0.971899
vn -0.235400 0.000100 0.971899
vn 0.502104 0.000100 0.864807
vn 0.502104 0.000000 0.864807
vn 0.502104 0.000000 0.864807
vn 0.713924 0.000100 0.700223
vn 0.713924 0.000100 0.700223
vn 0.713924 0.000000 0.700223
vn 0.530610 0.000100 0.847616
vn 0.530610 0.000000 0.847616
vn 0.530610 0.000000 0.847616
vn 0.311213 0.000100 0.950340
vn 0.311213 0.000100 0.950340
vn 0.311213 0.000000 0.950340
vn 0.113899 0.000100 0.993492
vn 0.113899 0.000100 0.993492
vn 0.113899 0.000000 0.993492
vn -0.003400 0.000100 0.999994
vn -0.003400 0.000100 0.999994
vn -0.003400 0.000000 0.999994
vn -0.087199 0.000100 0.996191
vn -0.087199 0.000100 0.996191
vn -0.087199 0.000000 0.996191
vn -0.285310 0.000100 0.958435
vn -0.278812 0.003500 0.960340
vn -0.274708 0.000000 0.961528
vn -0.411703 0.048900 0.910005
vn -0.664099 0.019200 0.747398
vn -0.759779 0.000000 0.650182
vn -0.996398 0.000000 -0.084800
vn -0.996398 0.000000 -0.084800
vn -0.955926 0.000000 -0.293608
vn -0.955926 0.000000 -0.293608
vn -0.998403 0.000000 0.056500
vn -0.998403 0.000000 0.056500
vn -0.866892 0.000000 0.498496
vn -0.866892 0.000000 0.498496
vn -0.717873 0.000000 0.696174
vn -0.717873 0.000000 0.696174
vn -0.688108 -0.000100 -0.725608
vn -0.688108 -0.000100 -0.725608
vn -0.688058 -0.000100 -0.725656
vn -0.688058 0.000000 -0.725656
vn -0.688058 0.000000 -0.725656
vn -0.688058 0.000000 -0.725656
vn -0.688058 -0.000100 -0.725656
vn -0.688108 0.000000 -0.725608
vn -0.688058 -0.000100 -0.725656
vn -0.469119 -0.000100 -0.883135
vn -0.469119 0.000000 -0.883135
vn -0.955002 0.296601 0.000000
vn -0.823633 0.567123 0.000000
vn -0.955002 0.296601 0.000000
vn -1.000000 0.000000 0.000000
vn -0.919584 0.000000 0.392893
vn -1.000000 0.000000 0.000000
vn -0.915812 0.059301 -0.397205
vn -0.919584 0.000000 -0.392893
vn -0.469282 0.067497 -0.880465
vn -0.471102 0.069900 -0.879305
vn -0.920045 0.061103 -0.387019
vn -0.400982 0.250189 -0.881260
vn -0.873785 0.288095 -0.391793
vn -0.471092 0.000000 -0.882084
vn -0.145200 0.000000 -0.989402
vn -0.145094 0.066797 -0.987161
vn -0.138698 0.293695 -0.945783
vn -0.144699 0.067199 -0.987191
vn -0.444792 0.533790 -0.719186
vn -0.119405 0.568124 -0.814234
vn 0.000000 0.293699 -0.955898
vn -0.000100 0.000000 -1.000000
vn -0.000100 0.066499 -0.997787
vn -0.000100 0.066897 -0.997760
vn -0.734484 0.599987 -0.317093
vn -0.728413 0.607911 -0.316006
vn -0.287996 0.633792 -0.717890
vn 0.145102 0.000000 -0.989417
vn 0.144996 0.066798 -0.987175
vn 0.144601 0.067200 -0.987206
vn 0.138698 0.293695 -0.945783
vn 0.119405 0.568124 -0.814234
vn 0.000000 0.568196 -0.822894
vn -0.823633 0.567123 0.000000
vn -0.823633 0.567123 0.000000
vn 0.400408 0.250905 -0.881317
vn 0.467414 0.069202 -0.881326
vn 0.467695 0.000000 -0.883890
vn 0.465999 0.067600 -0.882199
vn 0.684424 0.064502 -0.726225
vn 0.643095 0.258898 -0.720695
vn 0.444792 0.533790 -0.719186
vn 0.119405 0.568124 -0.814234
vn 0.287996 0.633792 -0.717890
vn 0.684411 0.064801 -0.726211
vn 0.685692 0.000000 -0.727892
vn 0.564833 0.567134 -0.599435
vn 0.555463 0.582261 -0.593660
vn 0.000000 0.568196 -0.822894
vn -0.119405 0.568124 -0.814234
vn 0.823633 0.567123 0.000000
vn 0.823633 0.567123 0.000000
vn 0.823633 0.567123 0.000000
vn 0.823633 0.567123 0.000000
vn 0.954879 0.296994 0.000000
vn 0.823633 0.567123 0.000000
vn 0.823633 0.567123 0.000000
vn 0.823633 0.567123 0.000000
vn 0.954879 0.296994 0.000000
vn 0.823633 0.567123 0.000000
vn 0.823633 0.567123 0.000000
vn 0.823633 0.567123 0.000000
vn 0.823633 0.567123 0.000000
vn 0.873711 0.288304 0.391805
vn 0.734484 0.599987 0.317093
vn 0.823633 0.567123 0.000000
vn 0.444792 0.533790 0.719186
vn 0.728413 0.607911 0.316006
vn -0.449292 0.000000 -0.893385
vn -0.655071 0.000000 -0.755567
vn -0.655071 0.000000 -0.755567
vn -0.449292 0.000000 -0.893385
vn -0.145102 0.000000 -0.989417
vn -0.145102 0.000000 -0.989417
vn 0.000000 0.000000 -1.000000
vn 0.000000 0.000000 -1.000000
vn 0.145102 0.000000 -0.989417
vn 0.145102 0.000000 -0.989417
vn 0.449292 0.000000 -0.893385
vn 0.449292 0.000000 -0.893385
vn 0.909687 0.000000 -0.415294
vn 0.909687 0.000000 -0.415294
vn 1.000000 0.000000 0.000000
vn 1.000000 0.000000 0.000000
vn 1.000000 0.000000 0.000000
vn 1.000000 0.000000 0.000000
vn 1.000000 0.000000 0.000000
vn 1.000000 0.000000 0.000000
vn 1.000000 0.000000 0.000000
vn 1.000000 0.000000 0.000000
vn 1.000000 0.000000 0.000000
vn 1.000000 0.000000 0.000000
vn 1.000000 0.000000 0.000000
vn 0.909687 0.000000 0.415294
vn 1.000000 0.000000 0.000000
vn 0.909687 0.000000 0.415294
vn 0.449292 0.000000 0.893385
vn 0.449292 0.000000 0.893385
vn 0.145102 0.000000 0.989417
vn 0.145102 0.000000 0.989417
vn 0.000000 0.000000 1.000000
vn 0.000000 0.000000 1.000000
vn -0.145102 0.000000 0.989417
vn -0.145102 0.000000 0.989417
vn -0.449292 0.000000 0.893385
vn -0.449292 0.000000 0.893385
vn -0.909687 0.000000 0.415294
vn -0.909687 0.000000 0.415294
vn -1.000000 0.000000 0.000000
vn -1.000000 0.000000 0.000000
vn -1.000000 0.000000 0.000000
vn -1.000000 0.000000 0.000000
vn -1.000000 0.000000 0.000000
vn -1.000000 0.000000 0.000000
vn -1.000000 0.000000 0.000000
vn -1.000000 0.000000 0.000000
vn -1.000000 0.000000 0.000000
vn -1.000000 0.000000 0.000000
vn -1.000000 0.000000 0.000000
vn -1.000000 0.000000 0.000000
vn -1.000000 0.000000 0.000000
vn -1.000000 0.000000 0.000000
vn -0.823633 0.567123 0.000000
vn -0.823633 0.567123 0.000000
vn -0.823633 0.567123 0.000000
vn -0.823633 0.567123 0.000000
vn 0.000100 0.974405 0.224801
vn 0.000000 0.978107 0.208102
vn -0.001800 0.962750 0.270386
vn 0.000000 1.000000 0.000000
vn -0.001000 0.966516 0.256604
vn 0.000000 1.000000 0.000000
vn -0.001700 0.999999 0.000000
vn 0.000000 1.000000 0.000000
vn 0.000000 1.000000 0.000000
vn 0.000000 1.000000 0.000000
vn -0.001000 0.966516 -0.256604
vn -0.001800 0.962750 -0.270386
vn 0.000000 1.000000 0.000000
vn 0.000000 1.000000 0.000000
vn 0.000100 0.974405 -0.224801
vn 0.000000 0.978107 -0.208102
vn 0.000000 1.000000 0.000000
vn 0.000000 1.000000 0.000000
vn 0.000100 0.974405 0.224801
vn 0.000000 0.978107 0.208102
vn 0.000000 1.000000 0.000000
vn 0.000000 1.000000 0.000000
vn -0.001800 0.962750 0.270386
vn -0.001000 0.966516 0.256604
vn 0.000000 1.000000 0.000000
vn 0.000000 1.000000 0.000000
vn -0.001700 0.999999 0.000000
vn 0.000000 1.000000 0.000000
vn 0.000000 1.000000 0.000000
vn 0.000000 1.000000 0.000000
vn -0.001000 0.966516 -0.256604
vn -0.001800 0.962750 -0.270386
vn -0.000100 0.974405 0.224801
vn 0.000000 0.978107 0.208102
vn 0.000100 0.974405 -0.224801
vn 0.000000 0.978107 -0.208102
vn 0.001800 0.962750 0.270386
vn 0.001000 0.966516 0.256604
vn 0.000000 1.000000 0.000000
vn 0.000000 1.000000 0.000000
vn 0.001700 0.999999 0.000000
vn 0.000000 1.000000 0.000000
vn 0.000000 1.000000 0.000000
vn 0.000000 1.000000 0.000000
vn 0.001000 0.966516 -0.256604
vn 0.001800 0.962750 -0.270386
vn 0.000000 1.000000 0.000000
vn 0.000000 1.000000 0.000000
vn -0.000100 0.974405 -0.224801
vn 0.000000 0.978107 -0.208102
vn 0.000000 1.000000 0.000000
vn 0.000000 1.000000 0.000000
vn -0.000100 0.974405 0.224801
vn 0.000000 0.978107 0.208102
vn 0.000000 1.000000 0.000000
vn 0.000000 1.000000 0.000000
vn 0.001800 0.962750 0.270386
vn 0.001000 0.966516 0.256604
vn 0.000000 1.000000 0.000000
vn 0.000000 1.000000 0.000000
vn 0.001700 0.999999 0.000000
vn 0.000000 1.000000 0.000000
vn 0.000000 1.000000 0.000000
vn 0.000000 1.000000 0.000000
vn 0.001000 0.966491 -0.256698
vn 0.001800 0.962750 -0.270386
vn -0.000100 0.974405 -0.224801
vn 0.000000 0.978107 -0.208102
vn 0.000000 1.000000 0.000000
vn 0.000000 1.000000 0.000000
vn 0.000000 1.000000 0.000000
vn 0.000000 1.000000 0.000000
vn 0.000000 1.000000 0.000000
vn 0.000000 1.000000 0.000000
vn 0.000000 1.000000 0.000000
vn 0.000000 1.000000 0.000000
vn 0.000000 1.000000 0.000000
vn 0.000000 1.000000 0.000000
vn 0.000000 1.000000 0.000000
vn 0.000000 1.000000 0.000000
vn 0.000000 1.000000 0.000000
vn 0.000000 1.000000 0.000000
vn 0.000000 1.000000 0.000000
vn 0.000000 1.000000 0.000000
vn 0.000000 1.000000 0.000000
vn 0.000000 1.000000 0.000000
vn 0.000000 1.000000 0.000000
vn 0.000000 1.000000 0.000000
vn 0.000000 1.000000 0.000000
vn 0.000000 1.000000 0.000000
vn 0.000000 1.000000 0.000000
vn 0.000000 1.000000 0.000000
vn 0.000000 1.000000 0.000000
vn 0.000000 1.000000 0.000000
vn 0.000000 1.000000 0.000000
vn 0.000000 1.000000 0.000000
vn 0.000000 1.000000 0.000000
vn 0.000000 1.000000 0.000000
vn 0.000000 1.000000 0.000000
vn 0.000000 1.000000 0.000000
vn 0.000000 1.000000 0.000000
vn 0.000000 1.000000 0.000000
vn 0.903664 0.208092 -0.374285
vn 0.000000 1.000000 0.000000
vn 0.978107 0.208102 0.000000
vn 0.691625 0.208108 -0.691625
vn 0.903664 0.208092 0.374285
vn 0.374319 0.208111 -0.903646
vn 0.691625 0.208108 0.691625
vn 0.000000 0.208102 -0.978107
vn 0.374319 0.208111 0.903646
vn -0.374319 0.208111 -0.903646
vn 0.000000 0.208102 0.978107
vn -0.691625 0.208108 -0.691625
vn -0.374285 0.208092 0.903664
vn -0.903646 0.208111 -0.374319
vn -0.469119 -0.000100 -0.883135
vn -0.145200 -0.000100 -0.989402
vn -0.145200 0.000000 -0.989402
vn -0.145200 -0.000100 -0.989402
vn -0.000100 -0.000100 -1.000000
vn -0.000100 0.000000 -1.000000
vn -0.000100 -0.000100 -1.000000
vn 0.145102 -0.000100 -0.989417
vn 0.145102 0.000000 -0.989417
vn 0.145102 -0.000100 -0.989417
vn 0.216094 -0.000100 -0.976373
vn 0.216094 -0.000100 -0.976373
vn 0.216094 0.000000 -0.976373
vn 0.216094 -0.000100 -0.976373
vn 0.395982 0.000000 -0.918258
vn 0.467814 0.000000 -0.883827
vn 0.685898 0.000000 -0.727698
vn 0.685898 0.000000 -0.727698
vn 0.877662 0.000000 -0.479279
vn 0.877662 0.000000 -0.479279
vn 0.999259 0.000000 0.038498
vn 0.999259 0.000000 0.038498
vn 0.863928 0.000000 0.503616
vn 0.863928 0.000000 0.503616
vn 0.532890 0.000000 0.846184
vn 0.532890 0.000000 0.846184
vn 0.057198 0.000000 0.998363
vn 0.057198 0.000000 0.998363
vn -0.230611 0.000000 0.973046
vn -0.230611 0.000000 0.973046
vn 0.809014 -0.269805 0.522209
vn 0.809014 -0.269805 0.522209
vn 0.809014 -0.269805 0.522209
vn 0.809014 -0.269805 0.522209
vn -0.000100 1.000000 -0.000100
vn 0.000000 1.000000 0.000000
vn -0.000100 1.000000 0.000000
vn 0.000000 1.000000 -0.000100
vn -0.000100 1.000000 -0.000100
vn -0.000100 1.000000 -0.000100
vn -0.000100 1.000000 -0.000100
vn -0.000100 1.000000 -0.000100
vn 0.000000 1.000000 -0.000100
vn 0.000000 1.000000 -0.000100
vn 0.000000 1.000000 -0.000100
vn 0.000000 1.000000 -0.000100
vn 0.000000 1.000000 -0.000100
vn 0.000000 1.000000 -0.000100
vn 0.000000 1.000000 -0.000100
vn 0.000000 1.000000 -0.000100
vn 0.000000 1.000000 -0.000100
vn 0.000000 1.000000 -0.000100
vn 0.000000 1.000000 -0.000100
vn 0.000000 1.000000 -0.000100
vn 0.000000 1.000000 -0.000100
vn 0.000000 1.000000 0.000000
vn 0.000000 1.000000 0.000000
vn 0.000000 1.000000 0.000000
vn 0.000000 1.000000 0.000000
vn 0.000000 1.000000 0.000000
vn 0.000000 1.000000 0.000000
vn 0.000000 1.000000 0.000000
vn 0.000000 1.000000 0.000000
vn 0.000000 1.000000 0.000000
vn 0.000000 1.000000 0.000000
vn 0.000000 -1.000000 0.000100
vn 0.000000 -1.000000 0.000100
vn 0.000000 -1.000000 0.000000
vn 0.000000 -1.000000 0.000000
vn 0.000000 -1.000000 0.000000
vn 0.000000 -1.000000 0.000000
vn 0.000000 -1.000000 0.000000
vn 0.000000 -1.000000 0.000000
vn 0.000000 -1.000000 0.000000
vn 0.000000 -1.000000 0.000000
vn 0.000000 -1.000000 0.000000
vn 0.000000 -1.000000 0.000000
vn 0.000000 -1.000000 0.000000
vn 0.000100 -1.000000 0.000100
vn 0.000100 -1.000000 0.000100
vn 0.000200 -1.000000 0.000200
vn 0.000100 -1.000000 0.000000
vn 0.000100 -1.000000 0.000100
vn 0.000100 -1.000000 0.000100
vn 0.000100 -1.000000 0.000100
vn 0.000100 -1.000000 0.000100
vn 0.000000 -1.000000 0.000100
vn 0.000000 -1.000000 0.000100
vn 0.000000 -1.000000 0.000100
vn 0.000000 -1.000000 0.000100
vn 0.000000 -1.000000 0.000100
vn 0.000000 -1.000000 0.000100
vn 0.000000 -1.000000 0.000100
vn 0.000000 -1.000000 0.000100
vn 0.000000 -1.000000 0.000100
vn 0.000000 -1.000000 0.000100
vn 0.000000 -1.000000 0.000100
vn 0.000000 -1.000000 0.000100
vn 0.000100 -1.000000 0.000000
vn 0.000100 -1.000000 0.000000
vn 0.000100 -1.000000 0.000000
vn 0.000100 -1.000000 0.000000
vn 0.000100 -1.000000 0.000000
vn 0.000100 -1.000000 0.000100
vn 0.000000 -1.000000 0.000100
vn 0.000100 -1.000000 0.000100
vn 0.000100 -1.000000 0.000100
vn 0.000000 -1.000000 0.000100
vn 0.000000 -1.000000 0.000100
vn 0.000000 -1.000000 0.000100
vn 0.000000 -1.000000 0.000100
vn 0.000000 -1.000000 0.000100
vn 0.000000 -1.000000 0.000100
vn 0.000000 -1.000000 0.000100
vn 0.000000 -1.000000 0.000100
vn 0.000000 -1.000000 0.000100
vn 0.000000 -1.000000 0.000100
vn -0.000100 -1.000000 0.000100
vn 0.000000 -1.000000 0.000000
vn -0.000100 -1.000000 0.000000
vn -0.000200 -1.000000 0.000000
vn 0.000000 -1.000000 0.000000
vn 0.000000 -1.000000 0.000000
vn 0.000000 -1.000000 0.000000
vn -0.674800 0.000000 -0.738000
vn -0.803848 0.000000 -0.594835
vn -0.674800 0.000000 -0.738000
vn -0.803848 0.000000 -0.594835
vn -0.981725 0.000000 -0.190305
vn -0.981725 0.000000 -0.190305
vn -0.991580 0.000000 -0.129497
vn -0.991580 0.000000 -0.129497
vn -0.894927 0.000000 -0.446213
vn -0.894927 0.000000 -0.446213
vn -0.734121 0.000000 -0.679019
vn -0.734121 0.000000 -0.679019
vn -0.530610 0.000000 -0.847616
vn -0.530610 0.000000 -0.847616
vn -0.311213 0.000000 -0.950340
vn -0.311213 0.000000 -0.950340
vn -0.113899 0.000000 -0.993492
vn -0.113899 0.000000 -0.993492
vn 0.003400 0.000000 -0.999994
vn 0.003400 0.000000 -0.999994
vn 0.087596 0.000000 -0.996156
vn 0.087596 0.000000 -0.996156
vn 0.285283 0.000000 -0.958443
vn 0.285283 0.000000 -0.958443
vn 0.762403 0.000000 -0.647103
vn 0.762403 0.000000 -0.647103
vn 0.992457 0.000000 0.122595
vn 0.992457 0.000000 0.122595
vn 0.865547 0.000000 0.500827
vn 0.865547 0.000000 0.500827
vn 0.463894 -0.001500 -0.885889
vn 0.464093 -0.001000 -0.885786
vn 0.464411 -0.000200 -0.885620
vn 0.464609 0.000300 -0.885516
vn -0.876889 0.000300 -0.480694
vn -0.876996 0.000100 -0.480498
vn -0.680267 0.000100 -0.732964
vn -0.680317 0.000000 -0.732918
vn 0.046601 0.000000 -0.998914
vn 0.046700 0.000000 -0.998909
vn 0.496903 0.000000 -0.867806
vn 0.496903 0.000000 -0.867806
vn 0.000000 -1.000000 0.000000
vn 0.000000 -1.000000 0.000000
vn 0.000000 -1.000000 0.000000
vn 0.000000 -1.000000 0.000000
vn 0.000000 -1.000000 0.000000
vn 0.000000 -1.000000 0.000000
vn 0.000000 -1.000000 0.000000
vn 0.000400 -1.000000 0.000000
vn -0.000100 -1.000000 0.000000
vn 0.000200 -1.000000 0.000000
vn 0.000000 -1.000000 0.000000
vn 0.000000 -1.000000 -0.000100
vn 0.000000 -1.000000 0.000000
vn 0.000000 -1.000000 0.000000
vn 0.000000 -1.000000 0.000000
vn 0.000000 -1.000000 0.000000
vn 0.000000 -1.000000 0.000000
vn 0.000000 -1.000000 0.000000
vn 0.000000 -1.000000 0.000000
vn 0.000000 -1.000000 0.000000
vn 0.000000 -1.000000 0.000000
vn 0.000000 -1.000000 0.000000
vn 0.000000 -1.000000 0.000000
vn 0.000000 -1.000000 0.000000
vn 0.000000 -1.000000 0.000000
vn 0.000000 -1.000000 0.000000
vn 1.000000 0.000000 0.000000
vn 1.000000 0.000000 0.000000
vn 0.918118 0.000000 0.396308
vn 0.914289 0.059999 0.400595
vn 0.998973 0.045299 0.000000
vn 1.000000 0.000000 0.000000
vn 0.465999 0.067600 0.882199
vn 0.467892 0.000000 0.883786
vn 0.467708 0.069901 0.881115
vn 0.918562 0.061997 0.390384
vn 0.144996 0.066798 0.987175
vn 0.998847 0.048002 0.000000
vn 0.145200 0.000000 0.989402
vn -0.000100 0.066499 0.997787
vn 0.144601 0.067200 0.987206
vn 0.400888 0.250292 0.881273
vn 0.138698 0.293695 0.945783
vn 0.000000 0.000000 1.000000
vn 0.962211 0.272303 0.000000
vn 0.000000 0.293699 0.955898
vn -0.000100 0.066897 0.997760
vn -0.145094 0.066797 0.987161
vn -0.144699 0.067199 0.987191
vn 0.287996 0.633792 0.717890
vn 0.119405 0.568124 0.814234
vn 0.000000 0.568196 0.822894
vn -0.145200 0.000000 0.989402
vn -0.138698 0.293695 0.945783
vn -0.119405 0.568124 0.814234
vn -0.469282 0.067497 0.880465
vn -0.470619 0.069003 0.879635
vn -0.400408 0.250905 0.881317
vn -0.287996 0.633792 0.717890
vn -0.471092 0.000000 0.882084
vn -0.915776 0.059298 0.397289
vn -0.873813 0.288804 0.391206
vn -0.920278 0.060299 0.386591
vn -0.444792 0.533790 0.719186
vn -0.728413 0.607911 0.316006
vn -0.734484 0.599987 0.317093
vn -0.823633 0.567123 0.000000
vn -0.823633 0.567123 0.000000
vn -0.823633 0.567123 0.000000
vn -0.691625 0.208108 0.691625
vn -0.978107 0.208102 0.000000
vn -0.903664 0.208092 0.374285
# 743 Normals

g g_g
f 1/1/1 2/2/2 3/3/3
f 3/3/3 2/2/2 4/4/4
f 2/2/2 5/5/5 4/4/4
f 6/6/6 5/5/5 2/2/2
f 7/7/7 8/8/8 9/9/9
f 7/7/7 10/10/10 8/8/8
f 9/9/9 8/8/8 11/11/11
f 8/8/8 10/10/10 12/12/12
f 8/8/8 13/13/13 11/11/11
f 14/14/14 8/8/8 12/12/12
f 13/13/13 8/8/8 14/14/14
f 11/11/11 13/13/13 15/15/15
f 13/13/13 16/16/16 15/15/15
f 17/17/17 13/13/13 14/14/14
f 16/16/16 13/13/13 17/17/17
f 15/15/15 16/16/16 18/18/18
f 16/16/16 19/19/19 18/18/18
f 20/20/20 16/16/16 17/17/17
f 19/19/19 16/16/16 20/20/20
f 18/18/18 19/19/19 21/21/21
f 19/19/19 22/22/22 21/21/21
f 23/23/23 19/19/19 20/20/20
f 22/22/22 19/19/19 23/23/23
f 21/21/21 22/22/22 24/24/24
f 25/25/25 26/26/26 27/27/27
f 28/28/28 26/26/26 25/25/25
f 29/29/29 28/28/28 25/25/25
f 30/30/30 28/28/28 29/29/29
f 31/31/31 32/32/32 33/33/33
f 34/34/34 32/32/32 31/31/31
f 33/33/33 32/32/32 35/35/35
f 36/36/36 32/32/32 34/34/34
f 37/37/37 38/38/38 39/39/39
f 39/39/39 40/40/40 37/37/37
f 41/41/41 40/40/40 39/39/39
f 42/42/42 38/38/38 37/37/37
f 43/43/43 44/44/44 45/45/45
f 43/43/43 46/46/46 44/44/44
f 44/44/44 46/46/46 47/47/47
f 45/45/45 44/44/44 48/48/48
f 44/44/44 49/49/49 48/48/48
f 47/47/47 49/49/49 44/44/44
f 50/50/50 49/49/49 47/47/47
f 48/48/48 49/49/49 51/51/51
f 49/49/49 52/52/52 51/51/51
f 53/53/53 52/52/52 49/49/49
f 50/50/50 53/53/53 49/49/49
f 54/54/54 53/53/53 50/50/50
f 53/53/53 55/55/55 52/52/52
f 56/56/56 55/55/55 53/53/53
f 54/54/54 56/56/56 53/53/53
f 57/57/57 56/56/56 54/54/54
f 56/56/56 58/58/58 55/55/55
f 59/59/59 58/58/58 56/56/56
f 57/57/57 59/59/59 56/56/56
f 60/60/60 59/59/59 57/57/57
f 59/59/59 61/61/61 58/58/58
f 62/62/62 61/61/61 59/59/59
f 63/63/63 59/59/59 60/60/60
f 62/62/62 59/59/59 63/63/63
f 64/64/64 65/65/65 66/66/66
f 67/67/67 65/65/65 64/64/64
f 66/66/66 65/65/65 68/68/68
f 69/69/69 65/65/65 67/67/67
f 70/70/70 71/71/71 72/72/72
f 73/73/73 71/71/71 70/70/70
f 72/72/72 71/71/71 74/74/74
f 75/75/75 71/71/71 73/73/73
f 76/76/76 77/77/77 78/78/78
f 78/78/78 79/79/79 76/76/76
f 80/80/80 79/79/79 78/78/78
f 81/81/81 77/77/77 76/76/76
f 82/82/82 83/83/83 84/84/84
f 83/83/83 85/85/85 86/86/86
f 84/84/84 83/83/83 86/86/86
f 86/86/86 85/85/85 87/87/87
f 86/86/86 88/88/88 84/84/84
f 89/89/89 88/88/88 86/86/86
f 87/87/87 89/89/89 86/86/86
f 90/90/90 89/89/89 87/87/87
f 89/89/89 91/91/91 88/88/88
f 92/92/92 91/91/91 89/89/89
f 89/89/89 90/90/90 92/92/92
f 92/92/92 90/90/90 93/93/93
f 92/92/92 94/94/94 91/91/91
f 95/95/95 94/94/94 92/92/92
f 93/93/93 95/95/95 92/92/92
f 96/96/96 95/95/95 93/93/93
f 95/95/95 97/97/97 94/94/94
f 98/98/98 97/97/97 95/95/95
f 96/96/96 98/98/98 95/95/95
f 99/99/99 98/98/98 96/96/96
f 98/98/98 100/100/100 97/97/97
f 101/101/101 98/98/98 99/99/99
f 100/100/100 98/98/98 101/101/101
f 97/97/97 100/100/100 102/102/102
f 103/103/103 104/104/104 105/105/105
f 106/106/106 104/104/104 103/103/103
f 107/107/107 104/104/104 106/106/106
f 105/105/105 104/104/104 108/108/108
f 109/109/109 110/110/110 111/111/111
f 112/112/112 110/110/110 109/109/109
f 113/113/113 110/110/110 112/112/112
f 111/111/111 110/110/110 114/114/114
f 115/115/115 116/116/116 117/117/117
f 116/116/116 118/118/118 117/117/117
f 119/119/119 117/117/117 118/118/118
f 118/118/118 116/116/116 120/120/120
f 120/120/120 116/116/116 121/121/121
f 122/122/122 119/119/119 118/118/118
f 123/123/123 119/119/119 122/122/122
f 120/120/120 121/121/121 124/124/124
f 124/124/124 121/121/121 125/125/125
f 126/126/126 123/123/123 122/122/122
f 127/127/127 124/124/124 125/125/125
f 128/128/128 124/124/124 127/127/127
f 122/122/122 129/129/129 126/126/126
f 130/130/130 129/129/129 122/122/122
f 131/131/131 128/128/128 127/127/127
f 132/132/132 128/128/128 131/131/131
f 130/130/130 133/133/133 129/129/129
f 134/134/134 133/133/133 130/130/130
f 131/131/131 135/135/135 132/132/132
f 134/134/134 136/136/136 133/133/133
f 137/137/137 136/136/136 134/134/134
f 135/135/135 138/138/138 132/132/132
f 132/132/132 138/138/138 139/139/139
f 137/137/137 140/140/140 136/136/136
f 141/141/141 140/140/140 137/137/137
f 138/138/138 142/142/142 139/139/139
f 139/139/139 142/142/142 143/143/143
f 141/141/141 144/144/144 140/140/140
f 144/144/144 145/145/145 140/140/140
f 146/146/146 144/144/144 141/141/141
f 147/147/147 144/144/144 146/146/146
f 148/148/148 147/147/147 146/146/146
f 143/143/143 142/142/142 149/149/149
f 142/142/142 150/150/150 149/149/149
f 151/151/151 143/143/143 149/149/149
f 152/152/152 143/143/143 151/151/151
f 153/153/153 152/152/152 151/151/151
f 154/154/154 147/147/147 148/148/148
f 155/155/155 147/147/147 154/154/154
f 156/156/156 152/152/152 153/153/153
f 154/154/154 156/156/156 153/153/153
f 148/148/148 156/156/156 154/154/154
f 157/157/157 158/158/158 159/159/159
f 158/158/158 160/160/160 159/159/159
f 160/160/160 161/161/161 159/159/159
f 161/161/161 162/162/162 159/159/159
f 162/162/162 163/163/163 159/159/159
f 163/163/163 164/164/164 159/159/159
f 164/164/164 165/165/165 159/159/159
f 165/165/165 166/166/166 159/159/159
f 166/166/166 167/167/167 159/159/159
f 167/167/167 168/168/168 159/159/159
f 168/168/168 169/169/169 159/159/159
f 169/169/169 170/170/170 159/159/159
f 170/170/170 171/171/171 159/159/159
f 171/171/171 172/172/172 159/159/159
f 173/173/173 174/174/174 175/175/175
f 175/175/175 174/174/174 176/176/176
f 174/174/174 177/177/177 176/176/176
f 176/176/176 177/177/177 178/178/178
f 177/177/177 179/179/179 178/178/178
f 178/178/178 179/179/179 180/180/180
f 179/179/179 181/181/181 180/180/180
f 180/180/180 181/181/181 182/182/182
f 181/181/181 183/183/183 182/182/182
f 182/182/182 183/183/183 184/184/184
f 183/183/183 185/185/185 184/184/184
f 184/184/184 185/185/185 186/186/186
f 185/185/185 187/187/187 186/186/186
f 186/186/186 187/187/187 188/188/188
f 187/187/187 189/189/189 188/188/188
f 188/188/188 189/189/189 190/190/190
f 189/189/189 191/191/191 190/190/190
f 190/190/190 191/191/191 192/192/192
f 191/191/191 193/193/193 192/192/192
f 192/192/192 193/193/193 194/194/194
f 193/193/193 195/195/195 194/194/194
f 194/194/194 195/195/195 196/196/196
f 195/195/195 197/197/197 196/196/196
f 196/196/196 197/197/197 198/198/198
f 197/197/197 199/199/199 198/198/198
f 198/198/198 199/199/199 200/200/200
f 199/199/199 201/201/201 200/200/200
f 200/200/200 201/201/201 202/202/202
f 201/201/201 203/203/203 202/202/202
f 202/202/202 203/203/203 204/204/204
f 203/203/203 205/205/205 204/204/204
f 204/204/204 205/205/205 206/206/206
f 207/207/207 208/208/208 209/209/209
f 210/210/210 208/208/208 207/207/207
f 210/210/210 211/211/211 208/208/208
f 212/212/212 211/211/211 210/210/210
f 207/207/207 213/213/213 210/210/210
f 210/210/210 214/214/214 212/212/212
f 213/213/213 214/214/214 210/210/210
f 215/215/215 213/213/213 207/207/207
f 216/216/216 213/213/213 215/215/215
f 217/217/217 213/213/213 216/216/216
f 217/217/217 214/214/214 213/213/213
f 218/218/218 214/214/214 217/217/217
f 219/219/219 217/217/217 216/216/216
f 220/220/220 217/217/217 219/219/219
f 220/220/220 218/218/218 217/217/217
f 221/221/221 218/218/218 220/220/220
f 222/222/222 220/220/220 219/219/219
f 223/223/223 220/220/220 222/222/222
f 223/223/223 221/221/221 220/220/220
f 224/224/224 221/221/221 223/223/223
f 225/225/225 223/223/223 222/222/222
f 226/226/226 223/223/223 225/225/225
f 226/226/226 224/224/224 223/223/223
f 227/227/227 224/224/224 226/226/226
f 228/228/228 226/226/226 225/225/225
f 229/229/229 226/226/226 228/228/228
f 229/229/229 227/227/227 226/226/226
f 230/230/230 227/227/227 229/229/229
f 231/231/231 229/229/229 228/228/228
f 232/232/232 229/229/229 231/231/231
f 232/232/232 230/230/230 229/229/229
f 233/233/233 230/230/230 232/232/232
f 234/234/234 232/232/232 231/231/231
f 235/235/235 232/232/232 234/234/234
f 235/235/235 233/233/233 232/232/232
f 236/236/236 233/233/233 235/235/235
f 237/237/237 235/235/235 234/234/234
f 238/238/238 235/235/235 237/237/237
f 238/238/238 236/236/236 235/235/235
f 239/239/239 236/236/236 238/238/238
f 237/237/237 240/240/240 238/238/238
f 238/238/238 240/240/240 241/241/241
f 241/241/241 239/239/239 238/238/238
f 242/242/242 239/239/239 241/241/241
f 243/243/243 242/242/242 241/241/241
f 244/244/244 242/242/242 243/243/243
f 245/245/245 244/244/244 243/243/243
f 246/246/246 244/244/244 245/245/245
f 247/247/247 246/246/246 245/245/245
f 248/248/248 246/246/246 247/247/247
f 249/249/249 248/248/248 247/247/247
f 250/250/250 248/248/248 249/249/249
f 251/251/251 250/250/250 249/249/249
f 252/252/252 250/250/250 251/251/251
f 253/253/253 254/254/254 255/255/255
f 255/255/255 254/254/254 256/256/256
f 254/254/254 257/257/257 256/256/256
f 256/256/256 257/257/257 258/258/258
f 256/256/256 259/259/259 255/255/255
f 256/256/256 260/260/260 259/259/259
f 258/258/258 260/260/260 256/256/256
f 255/255/255 259/259/259 261/261/261
f 259/259/259 262/262/262 261/261/261
f 259/259/259 263/263/263 262/262/262
f 264/264/264 265/265/265 266/266/266
f 267/267/267 268/268/268 269/269/269
f 269/269/269 270/270/270 271/271/271
f 270/270/270 272/272/272 271/271/271
f 270/270/270 273/273/273 272/272/272
f 274/274/274 273/273/273 270/270/270
f 273/273/273 274/274/274 275/275/275
f 274/274/274 266/266/266 276/276/276
f 275/275/275 274/274/274 276/276/276
f 271/271/271 272/272/272 277/277/277
f 277/277/277 272/272/272 278/278/278
f 273/273/273 279/279/279 272/272/272
f 278/278/278 272/272/272 279/279/279
f 280/280/280 273/273/273 275/275/275
f 281/281/281 273/273/273 280/280/280
f 281/281/281 279/279/279 273/273/273
f 275/275/275 276/276/276 282/282/282
f 275/275/275 283/283/283 280/280/280
f 282/282/282 283/283/283 275/275/275
f 284/284/284 281/281/281 280/280/280
f 280/280/280 283/283/283 284/284/284
f 278/278/278 279/279/279 285/285/285
f 285/285/285 279/279/279 286/286/286
f 281/281/281 286/286/286 279/279/279
f 287/287/287 281/281/281 284/284/284
f 287/287/287 286/286/286 281/281/281
f 282/282/282 276/276/276 288/288/288
f 276/276/276 266/266/266 288/288/288
f 289/289/289 282/282/282 288/288/288
f 290/290/290 282/282/282 289/289/289
f 290/290/290 283/283/283 282/282/282
f 285/285/285 286/286/286 291/291/291
f 291/291/291 286/286/286 292/292/292
f 286/286/286 293/293/293 292/292/292
f 287/287/287 293/293/293 286/286/286
f 293/293/293 287/287/287 294/294/294
f 294/294/294 287/287/287 284/284/284
f 294/294/294 284/284/284 295/295/295
f 284/284/284 283/283/283 296/296/296
f 295/295/295 284/284/284 296/296/296
f 289/289/289 288/288/288 297/297/297
f 288/288/288 266/266/266 298/298/298
f 297/297/297 288/288/288 298/298/298
f 299/299/299 293/293/293 294/294/294
f 294/294/294 295/295/295 299/299/299
f 300/300/300 293/293/293 299/299/299
f 293/293/293 300/300/300 292/292/292
f 291/291/291 292/292/292 301/301/301
f 301/301/301 292/292/292 302/302/302
f 292/292/292 300/300/300 302/302/302
f 302/302/302 303/303/303 301/301/301
f 300/300/300 303/303/303 302/302/302
f 304/304/304 300/300/300 299/299/299
f 299/299/299 305/305/305 304/304/304
f 299/299/299 295/295/295 305/305/305
f 296/296/296 306/306/306 295/295/295
f 295/295/295 307/307/307 305/305/305
f 306/306/306 307/307/307 295/295/295
f 308/308/308 300/300/300 304/304/304
f 308/308/308 303/303/303 300/300/300
f 301/301/301 303/303/303 309/309/309
f 304/304/304 305/305/305 310/310/310
f 307/307/307 311/311/311 305/305/305
f 305/305/305 311/311/311 310/310/310
f 312/312/312 306/306/306 296/296/296
f 283/283/283 312/312/312 296/296/296
f 313/313/313 312/312/312 283/283/283
f 313/313/313 283/283/283 290/290/290
f 314/314/314 315/315/315 316/316/316
f 317/317/317 315/315/315 314/314/314
f 315/315/315 317/317/317 318/318/318
f 319/319/319 318/318/318 317/317/317
f 320/320/320 318/318/318 319/319/319
f 321/321/321 318/318/318 320/320/320
f 322/322/322 318/318/318 321/321/321
f 320/320/320 323/323/323 321/321/321
f 321/321/321 323/323/323 324/324/324
f 325/325/325 322/322/322 321/321/321
f 326/326/326 322/322/322 325/325/325
f 327/327/327 322/322/322 326/326/326
f 327/327/327 326/326/326 328/328/328
f 326/326/326 329/329/329 328/328/328
f 330/330/330 327/327/327 328/328/328
f 328/328/328 331/331/331 330/330/330
f 328/328/328 329/329/329 331/331/331
f 332/332/332 333/333/333 334/334/334
f 335/335/335 333/333/333 332/332/332
f 336/336/336 335/335/335 332/332/332
f 337/337/337 335/335/335 336/336/336
f 338/338/338 337/337/337 336/336/336
f 339/339/339 337/337/337 338/338/338
f 340/340/340 339/339/339 338/338/338
f 341/341/341 339/339/339 340/340/340
f 342/342/342 341/341/341 340/340/340
f 343/343/343 341/341/341 342/342/342
f 344/344/344 343/343/343 342/342/342
f 345/345/345 343/343/343 344/344/344
f 344/344/344 346/346/346 345/345/345
f 347/347/347 346/346/346 344/344/344
f 347/347/347 344/344/344 348/348/348
f 348/348/348 349/349/349 347/347/347
f 350/350/350 349/349/349 348/348/348
f 348/348/348 351/351/351 350/350/350
f 352/352/352 351/351/351 348/348/348
f 351/351/351 353/353/353 350/350/350
f 350/350/350 353/353/353 354/354/354
f 352/352/352 355/355/355 351/351/351
f 352/352/352 356/356/356 355/355/355
f 352/352/352 357/357/357 356/356/356
f 356/356/356 357/357/357 358/358/358
f 357/357/357 359/359/359 358/358/358
f 357/357/357 360/360/360 359/359/359
f 359/359/359 360/360/360 361/361/361
f 360/360/360 362/362/362 361/361/361
f 361/361/361 362/362/362 363/363/363
f 362/362/362 364/364/364 363/363/363
f 363/363/363 364/364/364 365/365/365
f 364/364/364 366/366/366 365/365/365
f 365/365/365 366/366/366 367/367/367
f 366/366/366 368/368/368 367/367/367
f 367/367/367 368/368/368 369/369/369
f 368/368/368 370/370/370 369/369/369
f 369/369/369 370/370/370 371/371/371
f 370/370/370 372/372/372 371/371/371
f 373/373/373 372/372/372 370/370/370
f 374/374/374 373/373/373 370/370/370
f 373/373/373 374/374/374 375/375/375
f 375/375/375 374/374/374 376/376/376
f 374/374/374 377/377/377 376/376/376
f 376/376/376 377/377/377 378/378/378
f 378/378/378 379/379/379 376/376/376
f 376/376/376 379/379/379 380/380/380
f 378/378/378 377/377/377 381/381/381
f 381/381/381 377/377/377 382/382/382
f 382/382/382 377/377/377 383/383/383
f 382/382/382 383/383/383 384/384/384
f 384/384/384 383/383/383 385/385/385
f 266/266/266 386/386/386 298/298/298
f 266/266/266 387/387/387 386/386/386
f 265/265/265 387/387/387 266/266/266
f 388/388/388 387/387/387 265/265/265
f 389/389/389 387/387/387 388/388/388
f 390/390/390 391/391/391 392/392/392
f 391/391/391 390/390/390 393/393/393
f 394/394/394 390/390/390 392/392/392
f 393/393/393 390/390/390 395/395/395
f 392/392/392 396/396/396 394/394/394
f 394/394/394 396/396/396 397/397/397
f 395/395/395 398/398/398 393/393/393
f 393/393/393 398/398/398 399/399/399
f 397/397/397 396/396/396 400/400/400
f 400/400/400 396/396/396 401/401/401
f 398/398/398 402/402/402 399/399/399
f 399/399/399 402/402/402 403/403/403
f 400/400/400 401/401/401 404/404/404
f 401/401/401 405/405/405 404/404/404
f 402/402/402 406/406/406 403/403/403
f 403/403/403 406/406/406 407/407/407
f 404/404/404 405/405/405 408/408/408
f 408/408/408 405/405/405 409/409/409
f 406/406/406 410/410/410 407/407/407
f 411/411/411 410/410/410 406/406/406
f 412/412/412 408/408/408 409/409/409
f 413/413/413 408/408/408 412/412/412
f 411/411/411 414/414/414 410/410/410
f 415/415/415 414/414/414 411/411/411
f 412/412/412 416/416/416 413/413/413
f 413/413/413 416/416/416 417/417/417
f 415/415/415 418/418/418 414/414/414
f 419/419/419 418/418/418 415/415/415
f 417/417/417 416/416/416 420/420/420
f 420/420/420 416/416/416 421/421/421
f 422/422/422 418/418/418 419/419/419
f 423/423/423 418/418/418 422/422/422
f 420/420/420 421/421/421 424/424/424
f 425/425/425 424/424/424 421/421/421
f 423/423/423 422/422/422 426/426/426
f 427/427/427 426/426/426 422/422/422
f 425/425/425 428/428/428 424/424/424
f 424/424/424 428/428/428 429/429/429
f 427/427/427 430/430/430 426/426/426
f 431/431/431 430/430/430 427/427/427
f 429/429/429 428/428/428 432/432/432
f 432/432/432 428/428/428 433/433/433
f 431/431/431 434/434/434 430/430/430
f 430/430/430 434/434/434 435/435/435
f 432/432/432 433/433/433 436/436/436
f 436/436/436 433/433/433 437/437/437
f 434/434/434 438/438/438 435/435/435
f 435/435/435 438/438/438 439/439/439
f 440/440/440 436/436/436 437/437/437
f 441/441/441 436/436/436 440/440/440
f 438/438/438 442/442/442 439/439/439
f 439/439/439 442/442/442 443/443/443
f 441/441/441 440/440/440 444/444/444
f 444/444/444 440/440/440 445/445/445
f 446/446/446 443/443/443 442/442/442
f 447/447/447 446/446/446 442/442/442
f 445/445/445 448/448/448 444/444/444
f 444/444/444 448/448/448 449/449/449
f 447/447/447 450/450/450 446/446/446
f 451/451/451 450/450/450 447/447/447
f 448/448/448 452/452/452 449/449/449
f 449/449/449 452/452/452 453/453/453
f 451/451/451 454/454/454 450/450/450
f 450/450/450 454/454/454 455/455/455
f 453/453/453 452/452/452 456/456/456
f 454/454/454 456/456/456 455/455/455
f 456/456/456 457/457/457 455/455/455
f 456/456/456 452/452/452 457/457/457
f 458/458/458 459/459/459 460/460/460
f 460/460/460 461/461/461 458/458/458
f 462/462/462 459/459/459 458/458/458
f 458/458/458 461/461/461 463/463/463
f 462/462/462 464/464/464 459/459/459
f 465/465/465 464/464/464 462/462/462
f 461/461/461 466/466/466 463/463/463
f 467/467/467 466/466/466 461/461/461
f 465/465/465 468/468/468 464/464/464
f 469/469/469 468/468/468 465/465/465
f 470/470/470 466/466/466 467/467/467
f 471/471/471 466/466/466 470/470/470
f 468/468/468 469/469/469 472/472/472
f 473/473/473 471/471/471 470/470/470
f 474/474/474 471/471/471 473/473/473
f 475/475/475 468/468/468 472/472/472
f 475/475/475 476/476/476 468/468/468
f 477/477/477 474/474/474 473/473/473
f 478/478/478 474/474/474 477/477/477
f 479/479/479 476/476/476 475/475/475
f 477/477/477 480/480/480 478/478/478
f 479/479/479 475/475/475 481/481/481
f 475/475/475 482/482/482 481/481/481
f 477/477/477 483/483/483 480/480/480
f 484/484/484 483/483/483 477/477/477
f 481/481/481 482/482/482 485/485/485
f 482/482/482 486/486/486 485/485/485
f 487/487/487 483/483/483 484/484/484
f 485/485/485 486/486/486 488/488/488
f 489/489/489 483/483/483 487/487/487
f 483/483/483 489/489/489 490/490/490
f 490/490/490 491/491/491 486/486/486
f 486/486/486 491/491/491 488/488/488
f 490/490/490 489/489/489 491/491/491
f 492/492/492 493/493/493 494/494/494
f 495/495/495 493/493/493 492/492/492
f 494/494/494 493/493/493 496/496/496
f 497/497/497 493/493/493 495/495/495
f 496/496/496 493/493/493 498/498/498
f 499/499/499 493/493/493 497/497/497
f 498/498/498 493/493/493 500/500/500
f 501/501/501 493/493/493 499/499/499
f 500/500/500 493/493/493 502/502/502
f 503/503/503 493/493/493 501/501/501
f 502/502/502 493/493/493 504/504/504
f 505/505/505 493/493/493 503/503/503
f 260/260/260 263/263/263 259/259/259
f 261/261/261 262/262/262 506/506/506
f 262/262/262 507/507/507 506/506/506
f 262/262/262 508/508/508 507/507/507
f 263/263/263 508/508/508 262/262/262
f 506/506/506 507/507/507 509/509/509
f 507/507/507 510/510/510 509/509/509
f 507/507/507 511/511/511 510/510/510
f 508/508/508 511/511/511 507/507/507
f 509/509/509 510/510/510 512/512/512
f 510/510/510 513/513/513 512/512/512
f 510/510/510 514/514/514 513/513/513
f 511/511/511 514/514/514 510/510/510
f 512/512/512 513/513/513 515/515/515
f 514/514/514 516/516/516 513/513/513
f 513/513/513 517/517/517 515/515/515
f 516/516/516 517/517/517 513/513/513
f 518/518/518 516/516/516 514/514/514
f 516/516/516 519/519/519 517/517/517
f 520/520/520 519/519/519 516/516/516
f 518/518/518 520/520/520 516/516/516
f 521/521/521 520/520/520 518/518/518
f 521/521/521 522/522/522 520/520/520
f 520/520/520 522/522/522 523/523/523
f 522/522/522 524/524/524 523/523/523
f 523/523/523 524/524/524 525/525/525
f 524/524/524 526/526/526 525/525/525
f 525/525/525 526/526/526 527/527/527
f 526/526/526 528/528/528 527/527/527
f 527/527/527 528/528/528 529/529/529
f 528/528/528 530/530/530 529/529/529
f 529/529/529 530/530/530 531/531/531
f 530/530/530 532/532/532 531/531/531
f 531/531/531 532/532/532 533/533/533
f 532/532/532 534/534/534 533/533/533
f 533/533/533 534/534/534 535/535/535
f 536/536/536 537/537/537 538/538/538
f 538/538/538 537/537/537 539/539/539
f 540/540/540 541/541/541 542/542/542
f 543/543/543 540/540/540 542/542/542
f 544/544/544 540/540/540 543/543/543
f 545/545/545 540/540/540 544/544/544
f 540/540/540 545/545/545 546/546/546
f 546/546/546 545/545/545 547/547/547
f 546/546/546 547/547/547 548/548/548
f 548/548/548 547/547/547 549/549/549
f 549/549/549 550/550/550 548/548/548
f 551/551/551 550/550/550 549/549/549
f 551/551/551 552/552/552 550/550/550
f 553/553/553 552/552/552 551/551/551
f 553/553/553 554/554/554 552/552/552
f 552/552/552 554/554/554 555/555/555
f 554/554/554 556/556/556 555/555/555
f 555/555/555 556/556/556 557/557/557
f 556/556/556 558/558/558 557/557/557
f 557/557/557 558/558/558 559/559/559
f 558/558/558 560/560/560 559/559/559
f 561/561/561 560/560/560 558/558/558
f 560/560/560 561/561/561 562/562/562
f 562/562/562 561/561/561 563/563/563
f 563/563/563 561/561/561 564/564/564
f 564/564/564 561/561/561 565/565/565
f 561/561/561 566/566/566 565/565/565
f 565/565/565 566/566/566 567/567/567
f 567/567/567 566/566/566 568/568/568
f 566/566/566 569/569/569 568/568/568
f 569/569/569 570/570/570 568/568/568
f 571/571/571 572/572/572 573/573/573
f 573/573/573 572/572/572 574/574/574
f 572/572/572 575/575/575 574/574/574
f 575/575/575 576/576/576 574/574/574
f 576/576/576 577/577/577 574/574/574
f 577/577/577 578/578/578 574/574/574
f 574/574/574 578/578/578 579/579/579
f 578/578/578 580/580/580 579/579/579
f 580/580/580 581/581/581 579/579/579
f 579/579/579 581/581/581 582/582/582
f 581/581/581 583/583/583 582/582/582
f 584/584/584 585/585/585 586/586/586
f 587/587/587 585/585/585 584/584/584
f 588/588/588 587/587/587 584/584/584
f 589/589/589 588/588/588 584/584/584
f 590/590/590 589/589/589 584/584/584
f 591/591/591 589/589/589 590/590/590
f 592/592/592 591/591/591 590/590/590
f 593/593/593 591/591/591 592/592/592
f 594/594/594 593/593/593 592/592/592
f 595/595/595 593/593/593 594/594/594
f 594/594/594 596/596/596 595/595/595
f 595/595/595 596/596/596 597/597/597
f 597/597/597 596/596/596 598/598/598
f 598/598/598 596/596/596 599/599/599
f 598/598/598 599/599/599 600/600/600
f 600/600/600 599/599/599 601/601/601
f 600/600/600 601/601/601 602/602/602
f 602/602/602 601/601/601 603/603/603
f 604/604/604 605/605/605 606/606/606
f 606/606/606 605/605/605 607/607/607
f 607/607/607 605/605/605 608/608/608
f 608/608/608 605/605/605 609/609/609
f 605/605/605 610/610/610 609/609/609
f 609/609/609 610/610/610 611/611/611
f 611/611/611 610/610/610 612/612/612
f 610/610/610 613/613/613 612/612/612
f 614/614/614 613/613/613 610/610/610
f 615/615/615 613/613/613 614/614/614
f 616/616/616 615/615/615 614/614/614
f 617/617/617 615/615/615 616/616/616
f 616/616/616 618/618/618 617/617/617
f 619/619/619 618/618/618 616/616/616
f 619/619/619 620/620/620 618/618/618
f 621/621/621 620/620/620 619/619/619
f 620/620/620 621/621/621 622/622/622
f 621/621/621 623/623/623 622/622/622
f 622/622/622 623/623/623 624/624/624
f 624/624/624 623/623/623 625/625/625
f 625/625/625 623/623/623 626/626/626
f 627/627/627 624/624/624 625/625/625
f 624/624/624 627/627/627 628/628/628
f 628/628/628 627/627/627 629/629/629
f 630/630/630 631/631/631 632/632/632
f 632/632/632 631/631/631 633/633/633
f 631/631/631 634/634/634 633/633/633
f 633/633/633 634/634/634 635/635/635
f 634/634/634 636/636/636 635/635/635
f 635/635/635 636/636/636 637/637/637
f 636/636/636 638/638/638 637/637/637
f 637/637/637 638/638/638 639/639/639
f 638/638/638 640/640/640 639/639/639
f 639/639/639 640/640/640 641/641/641
f 640/640/640 642/642/642 641/641/641
f 641/641/641 642/642/642 643/643/643
f 642/642/642 644/644/644 643/643/643
f 643/643/643 644/644/644 645/645/645
f 644/644/644 646/646/646 645/645/645
f 645/645/645 646/646/646 647/647/647
f 646/646/646 648/648/648 647/647/647
f 647/647/647 648/648/648 649/649/649
f 648/648/648 650/650/650 649/649/649
f 649/649/649 650/650/650 651/651/651
f 651/651/651 650/650/650 652/652/652
f 652/652/652 650/650/650 653/653/653
f 653/653/653 654/654/654 652/652/652
f 652/652/652 654/654/654 655/655/655
f 654/654/654 656/656/656 655/655/655
f 655/655/655 656/656/656 657/657/657
f 656/656/656 658/658/658 657/657/657
f 657/657/657 658/658/658 659/659/659
f 660/660/660 661/661/661 662/662/662
f 662/662/662 661/661/661 663/663/663
f 664/664/664 665/665/665 666/666/666
f 666/666/666 665/665/665 667/667/667
f 667/667/667 668/668/668 666/666/666
f 666/666/666 668/668/668 669/669/669
f 668/668/668 670/670/670 669/669/669
f 669/669/669 670/670/670 671/671/671
f 672/672/672 673/673/673 674/674/674
f 675/675/675 672/672/672 674/674/674
f 676/676/676 672/672/672 675/675/675
f 676/676/676 677/677/677 672/672/672
f 672/672/672 677/677/677 678/678/678
f 678/678/678 677/677/677 679/679/679
f 677/677/677 680/680/680 679/679/679
f 678/678/678 679/679/679 681/681/681
f 682/682/682 678/678/678 681/681/681
f 679/679/679 680/680/680 683/683/683
f 683/683/683 680/680/680 684/684/684
f 685/685/685 682/682/682 681/681/681
f 683/683/683 684/684/684 686/686/686
f 686/686/686 687/687/687 683/683/683
f 687/687/687 688/688/688 683/683/683
f 688/688/688 689/689/689 683/683/683
f 689/689/689 690/690/690 683/683/683
f 690/690/690 691/691/691 683/683/683
f 691/691/691 692/692/692 683/683/683
f 692/692/692 693/693/693 683/683/683
f 693/693/693 694/694/694 683/683/683
f 694/694/694 695/695/695 683/683/683
f 695/695/695 696/696/696 683/683/683
f 683/683/683 696/696/696 697/697/697
f 698/698/698 699/699/699 700/700/700
f 699/699/699 701/701/701 700/700/700
f 699/699/699 702/702/702 701/701/701
f 703/703/703 702/702/702 699/699/699
f 704/704/704 700/700/700 701/701/701
f 705/705/705 700/700/700 704/704/704
f 701/701/701 706/706/706 704/704/704
f 707/707/707 706/706/706 701/701/701
f 702/702/702 707/707/707 701/701/701
f 708/708/708 705/705/705 704/704/704
f 706/706/706 708/708/708 704/704/704
f 709/709/709 707/707/707 702/702/702
f 710/710/710 705/705/705 708/708/708
f 711/711/711 710/710/710 708/708/708
f 712/712/712 708/708/708 706/706/706
f 712/712/712 711/711/711 708/708/708
f 706/706/706 707/707/707 713/713/713
f 714/714/714 706/706/706 713/713/713
f 712/712/712 706/706/706 714/714/714
f 715/715/715 710/710/710 711/711/711
f 713/713/713 707/707/707 327/327/327
f 707/707/707 322/322/322 327/327/327
f 707/707/707 318/318/318 322/322/322
f 709/709/709 318/318/318 707/707/707
f 318/318/318 709/709/709 716/716/716
f 717/717/717 712/712/712 714/714/714
f 718/718/718 712/712/712 717/717/717
f 718/718/718 711/711/711 712/712/712
f 719/719/719 715/715/715 711/711/711
f 711/711/711 720/720/720 719/719/719
f 718/718/718 720/720/720 711/711/711
f 713/713/713 327/327/327 330/330/330
f 713/713/713 721/721/721 714/714/714
f 330/330/330 721/721/721 713/713/713
f 714/714/714 721/721/721 722/722/722
f 723/723/723 714/714/714 722/722/722
f 717/717/717 714/714/714 723/723/723
f 724/724/724 715/715/715 719/719/719
f 720/720/720 718/718/718 725/725/725
f 725/725/725 718/718/718 717/717/717
f 725/725/725 717/717/717 726/726/726
f 726/726/726 717/717/717 723/723/723
f 716/716/716 315/315/315 318/318/318
f 727/727/727 724/724/724 719/719/719
f 719/719/719 728/728/728 727/727/727
f 720/720/720 728/728/728 719/719/719
f 728/728/728 720/720/720 729/729/729
f 729/729/729 720/720/720 725/725/725
f 729/729/729 725/725/725 730/730/730
f 725/725/725 726/726/726 730/730/730
f 330/330/330 331/331/331 721/721/721
f 731/731/731 724/724/724 727/727/727
f 732/732/732 731/731/731 727/727/727
f 728/728/728 732/732/732 727/727/727
f 733/733/733 728/728/728 729/729/729
f 734/734/734 728/728/728 733/733/733
f 734/734/734 732/732/732 728/728/728
f 729/729/729 735/735/735 733/733/733
f 735/735/735 729/729/729 730/730/730
f 736/736/736 735/735/735 730/730/730
f 733/733/733 735/735/735 737/737/737
f 737/737/737 735/735/735 736/736/736
f 264/264/264 734/734/734 733/733/733
f 733/733/733 737/737/737 264/264/264
f 268/268/268 731/731/731 732/732/732
f 734/734/734 274/274/274 732/732/732
f 266/266/266 734/734/734 264/264/264
f 274/274/274 734/734/734 266/266/266
f 732/732/732 274/274/274 270/270/270
f 732/732/732 270/270/270 269/269/269
f 269/269/269 268/268/268 732/732/732
f 738/738/738 737/737/737 736/736/736
f 739/739/739 737/737/737 738/738/738
f 737/737/737 739/739/739 264/264/264
f 739/739/739 740/740/740 264/264/264
f 264/264/264 740/740/740 265/265/265
f 504/504/504 493/493/493 741/741/741
f 742/742/742 493/493/493 505/505/505
f 741/741/741 493/493/493 743/743/743
f 743/743/743 493/493/493 742/742/742
# 772 Faces

