# Blender v2.79 (sub 0) OBJ File: 'score_bnk_trolly_money_burnt.blend'
# www.blender.org
mtllib score_bnk_trolly_money_burnt.mtl
o g_money_half
v 24.999996 -48.000000 15.000001
v 24.999996 -48.000000 -0.000035
v 24.999996 -0.000000 15.000001
v 24.999996 0.000001 -0.000035
v 24.999996 48.000000 15.000001
v 24.999996 48.000000 -0.000035
v 25.000004 -0.000005 15.000002
v -25.000004 -48.000000 15.000001
v -25.000004 -48.000000 -0.000035
v 24.999983 -48.000004 15.000002
v -24.999992 48.000000 15.000001
v -25.000004 0.000001 15.000001
v -25.000004 0.000001 -0.000035
v -24.999992 48.000000 -0.000041
v 25.000010 47.999992 15.000002
v -25.000006 -47.999992 15.000002
v -24.999996 0.000004 15.000002
v -24.999987 48.000004 15.000002
v -13.514848 21.126968 14.999996
v -13.514848 21.126968 18.773851
v -15.097865 31.000883 14.999996
v -15.097865 31.000883 18.773851
v 11.169926 25.084511 14.999996
v 11.169926 25.084511 18.773851
v 9.586908 34.958424 14.999996
v 9.586908 34.958424 18.773851
v -8.513505 7.971231 14.999996
v -8.513505 7.971231 18.773851
v -5.930578 17.631905 14.999996
v -5.930578 17.631905 18.773851
v 15.638166 1.513916 14.999996
v 15.638166 1.513916 18.773851
v 18.221096 11.174588 14.999996
v 18.221096 11.174588 18.773851
v -14.515394 -21.796577 14.999996
v -14.515394 -21.796577 18.773851
v -15.936052 -11.898000 14.999996
v -15.936052 -11.898000 18.773851
v 10.231040 -18.244930 14.999996
v 10.231040 -18.244930 18.773851
v 8.810384 -8.346354 14.999996
v 8.810384 -8.346354 18.773851
v -8.314380 -33.642223 14.999996
v -8.314380 -33.642223 18.773851
v -10.562420 -23.898176 14.999996
v -10.562420 -23.898176 18.773851
v 16.045723 -28.022129 14.999996
v 16.045723 -28.022129 18.773851
v 13.797688 -18.278082 14.999996
v 13.797688 -18.278082 18.773851
v 24.999996 -48.000000 -0.000035
v 24.999996 -48.000000 -0.000035
v 24.999996 -48.000000 15.000001
v 24.999996 48.000000 -0.000035
v 24.999996 48.000000 -0.000035
v 24.999996 48.000000 15.000001
v -25.000004 -48.000000 -0.000035
v -25.000004 -48.000000 -0.000035
v -25.000004 -48.000000 15.000001
v -24.999992 48.000000 15.000001
v -24.999992 48.000000 -0.000041
v -24.999992 48.000000 -0.000041
v -25.000004 0.000001 -0.000035
v 24.999996 0.000001 -0.000035
v -13.514848 21.126968 14.999996
v -13.514848 21.126968 18.773851
v -13.514848 21.126968 18.773851
v -15.097865 31.000883 18.773851
v -15.097865 31.000883 18.773851
v -15.097865 31.000883 14.999996
v 9.586908 34.958424 18.773851
v 9.586908 34.958424 18.773851
v 9.586908 34.958424 14.999996
v 11.169926 25.084511 18.773851
v 11.169926 25.084511 18.773851
v 11.169926 25.084511 14.999996
v -8.513505 7.971231 14.999996
v -8.513505 7.971231 18.773851
v -8.513505 7.971231 18.773851
v -5.930578 17.631905 18.773851
v -5.930578 17.631905 18.773851
v -5.930578 17.631905 14.999996
v 18.221096 11.174588 18.773851
v 18.221096 11.174588 18.773851
v 18.221096 11.174588 14.999996
v 15.638166 1.513916 18.773851
v 15.638166 1.513916 18.773851
v 15.638166 1.513916 14.999996
v -14.515394 -21.796577 14.999996
v -14.515394 -21.796577 18.773851
v -14.515394 -21.796577 18.773851
v -15.936052 -11.898000 18.773851
v -15.936052 -11.898000 18.773851
v -15.936052 -11.898000 14.999996
v 8.810384 -8.346354 18.773851
v 8.810384 -8.346354 18.773851
v 8.810384 -8.346354 14.999996
v 10.231040 -18.244930 18.773851
v 10.231040 -18.244930 18.773851
v 10.231040 -18.244930 14.999996
v -8.314380 -33.642223 14.999996
v -8.314380 -33.642223 18.773851
v -8.314380 -33.642223 18.773851
v -10.562420 -23.898176 18.773851
v -10.562420 -23.898176 18.773851
v -10.562420 -23.898176 14.999996
v 13.797688 -18.278082 18.773851
v 13.797688 -18.278082 18.773851
v 13.797688 -18.278082 14.999996
v 16.045723 -28.022129 18.773851
v 16.045723 -28.022129 18.773851
v 16.045723 -28.022129 14.999996
vt 0.025391 0.695312
vt 0.580078 0.962891
vt 0.580078 0.695312
vt 0.580078 0.689453
vt 0.829465 0.000000
vt 0.580078 0.000000
vt 0.580078 0.689453
vt 0.829465 0.000000
vt 0.580078 0.000000
vt 0.580078 0.962891
vt 0.025391 0.695312
vt 0.580078 0.695312
vt 0.829465 0.000000
vt 0.580078 0.689453
vt 0.580078 0.000000
vt 0.580078 0.000000
vt 0.829465 0.689453
vt 0.580078 0.689453
vt 0.580078 0.000000
vt 0.025391 0.689453
vt 0.580078 0.689453
vt 0.580078 0.000000
vt 0.025391 0.689453
vt 0.580078 0.689453
vt 0.025391 0.689453
vt 0.580078 0.000000
vt 0.580078 0.689453
vt 0.025391 0.689453
vt 0.580078 0.000000
vt 0.580078 0.689453
vt 0.748047 0.146484
vt 0.638672 0.285156
vt 0.638672 0.146484
vt 0.312500 0.761719
vt 0.591797 0.828125
vt 0.312500 0.828125
vt 0.638672 0.285156
vt 0.748047 0.146484
vt 0.748047 0.285156
vt 0.591797 0.828125
vt 0.312500 0.761719
vt 0.591797 0.761719
vt 0.582031 0.416016
vt 0.302734 0.281250
vt 0.582031 0.281250
vt 0.748047 0.146484
vt 0.638672 0.285156
vt 0.638672 0.146484
vt 0.312500 0.761719
vt 0.591797 0.828125
vt 0.312500 0.828125
vt 0.638672 0.285156
vt 0.748047 0.146484
vt 0.748047 0.285156
vt 0.591797 0.828125
vt 0.312500 0.761719
vt 0.591797 0.761719
vt 0.302734 0.416016
vt 0.582031 0.281250
vt 0.582031 0.416016
vt 0.748047 0.146484
vt 0.638672 0.285156
vt 0.638672 0.146484
vt 0.312500 0.761719
vt 0.591797 0.828125
vt 0.312500 0.828125
vt 0.638672 0.285156
vt 0.748047 0.146484
vt 0.748047 0.285156
vt 0.591797 0.828125
vt 0.312500 0.761719
vt 0.591797 0.761719
vt 0.302734 0.416016
vt 0.582031 0.281250
vt 0.582031 0.416016
vt 0.748047 0.146484
vt 0.638672 0.285156
vt 0.638672 0.146484
vt 0.312500 0.761719
vt 0.591797 0.828125
vt 0.312500 0.828125
vt 0.638672 0.285156
vt 0.748047 0.146484
vt 0.748047 0.285156
vt 0.591797 0.828125
vt 0.312500 0.761719
vt 0.591797 0.761719
vt 0.302734 0.416016
vt 0.582031 0.281250
vt 0.582031 0.416016
vt 0.025391 0.962891
vt 0.829465 0.689453
vt 0.829465 0.689453
vt 0.025391 0.962891
vt 0.829465 0.689453
vt 0.829465 0.000000
vt 0.025391 0.000000
vt 0.025391 0.000000
vt 0.025391 0.000000
vt 0.025391 0.000000
vt 0.748047 0.285156
vt 0.591797 0.761719
vt 0.638672 0.146484
vt 0.312500 0.828125
vt 0.302734 0.416016
vt 0.748047 0.285156
vt 0.591797 0.761719
vt 0.638672 0.146484
vt 0.312500 0.828125
vt 0.302734 0.281250
vt 0.748047 0.285156
vt 0.591797 0.761719
vt 0.638672 0.146484
vt 0.312500 0.828125
vt 0.302734 0.281250
vt 0.748047 0.285156
vt 0.591797 0.761719
vt 0.638672 0.146484
vt 0.312500 0.828125
vt 0.302734 0.281250
vn 0.0000 -1.0000 0.0000
vn 1.0000 0.0000 0.0000
vn 0.0000 1.0000 0.0000
vn -1.0000 0.0000 0.0000
vn -0.0000 0.0000 1.0000
vn 0.0000 0.0000 -1.0000
vn -0.9874 -0.1583 0.0000
vn -0.1583 0.9874 0.0000
vn 0.9874 0.1583 0.0000
vn 0.1583 -0.9874 0.0000
vn -0.9661 0.2583 0.0000
vn 0.2583 0.9661 0.0000
vn 0.9661 -0.2583 0.0000
vn -0.2583 -0.9661 0.0000
vn -0.9899 -0.1421 0.0000
vn -0.1421 0.9899 0.0000
vn 0.9899 0.1421 0.0000
vn 0.1421 -0.9899 0.0000
vn -0.9744 -0.2248 0.0000
vn -0.2248 0.9744 0.0000
vn 0.9744 0.2248 0.0000
vn 0.2248 -0.9744 0.0000
usemtl mtl_money
s off
f 59/1/1 51/2/1 53/3/1
f 1/4/2 64/5/2 3/6/2
f 3/7/2 54/8/2 56/9/2
f 55/10/3 11/11/3 5/12/3
f 63/13/4 8/14/4 12/15/4
f 60/16/4 63/17/4 12/18/4
f 16/19/5 7/20/5 17/21/5
f 17/22/5 15/23/5 18/24/5
f 9/25/6 4/26/6 2/27/6
f 13/28/6 6/29/6 4/30/6
f 66/31/7 70/32/7 65/33/7
f 69/34/8 73/35/8 21/36/8
f 72/37/9 76/38/9 25/39/9
f 75/40/10 19/41/10 23/42/10
f 26/43/5 20/44/5 24/45/5
f 78/46/11 82/47/11 77/48/11
f 81/49/12 85/50/12 29/51/12
f 84/52/13 88/53/13 33/54/13
f 87/55/14 27/56/14 31/57/14
f 30/58/5 32/59/5 34/60/5
f 90/61/15 94/62/15 89/63/15
f 93/64/16 97/65/16 37/66/16
f 96/67/17 100/68/17 41/69/17
f 99/70/18 35/71/18 39/72/18
f 38/73/5 40/74/5 42/75/5
f 102/76/19 106/77/19 101/78/19
f 105/79/20 109/80/20 45/81/20
f 108/82/21 112/83/21 49/84/21
f 111/85/22 43/86/22 47/87/22
f 46/88/5 48/89/5 50/90/5
f 59/1/1 57/91/1 51/2/1
f 1/4/2 52/92/2 64/5/2
f 3/7/2 64/93/2 54/8/2
f 55/10/3 61/94/3 11/11/3
f 63/13/4 58/95/4 8/14/4
f 60/16/4 62/96/4 63/17/4
f 16/19/5 10/97/5 7/20/5
f 17/22/5 7/98/5 15/23/5
f 9/25/6 13/99/6 4/26/6
f 13/28/6 14/100/6 6/29/6
f 66/31/7 68/101/7 70/32/7
f 69/34/8 71/102/8 73/35/8
f 72/37/9 74/103/9 76/38/9
f 75/40/10 67/104/10 19/41/10
f 26/43/5 22/105/5 20/44/5
f 78/46/11 80/106/11 82/47/11
f 81/49/12 83/107/12 85/50/12
f 84/52/13 86/108/13 88/53/13
f 87/55/14 79/109/14 27/56/14
f 30/58/5 28/110/5 32/59/5
f 90/61/15 92/111/15 94/62/15
f 93/64/16 95/112/16 97/65/16
f 96/67/17 98/113/17 100/68/17
f 99/70/18 91/114/18 35/71/18
f 38/73/5 36/115/5 40/74/5
f 102/76/19 104/116/19 106/77/19
f 105/79/20 107/117/20 109/80/20
f 108/82/21 110/118/21 112/83/21
f 111/85/22 103/119/22 43/86/22
f 46/88/5 44/120/5 48/89/5
o co_culling
v -30.000002 -50.000000 0.000000
v -30.000002 -50.000000 30.000008
v -30.000002 49.999996 0.000000
v -30.000002 49.999996 30.000008
v 30.000002 -50.000000 0.000000
v 30.000002 -50.000000 30.000008
v 30.000002 49.999996 0.000000
v 30.000002 49.999996 30.000008
vn -1.0000 0.0000 0.0000
vn 0.0000 1.0000 0.0000
vn 1.0000 0.0000 0.0000
vn 0.0000 -1.0000 0.0000
vn 0.0000 0.0000 -1.0000
vn 0.0000 0.0000 1.0000
usemtl None
s off
f 114//23 115//23 113//23
f 116//24 119//24 115//24
f 120//25 117//25 119//25
f 118//26 113//26 117//26
f 119//27 113//27 115//27
f 116//28 118//28 120//28
f 114//23 116//23 115//23
f 116//24 120//24 119//24
f 120//25 118//25 117//25
f 118//26 114//26 113//26
f 119//27 117//27 113//27
f 116//28 114//28 118//28
o g_money_full
v 24.999996 -48.000000 15.000001
v 24.999996 -48.000000 -0.000035
v 24.999996 -0.000000 15.000001
v 24.999996 0.000001 -0.000035
v 24.999996 48.000000 15.000001
v 24.999996 48.000000 -0.000035
v 25.000004 -0.000005 30.000002
v -25.000004 -48.000000 15.000001
v -25.000004 -48.000000 -0.000035
v 24.999983 -48.000004 30.000002
v -24.999992 48.000000 15.000001
v -25.000004 0.000001 15.000001
v -25.000004 0.000001 -0.000035
v -24.999992 48.000000 -0.000041
v 25.000010 47.999992 14.999967
v 25.000010 47.999992 30.000002
v -25.000006 -47.999992 14.999967
v -25.000006 -47.999992 30.000002
v -24.999996 0.000003 14.999967
v -24.999996 0.000004 30.000002
v -24.999987 48.000004 14.999967
v -24.999987 48.000004 30.000002
v 24.999983 -48.000004 14.999960
v 25.000004 -0.000005 14.999967
v 24.999996 -48.000000 -0.000035
v 24.999996 -48.000000 -0.000035
v 24.999996 -48.000000 15.000001
v -25.000006 -47.999992 30.000002
v -25.000006 -47.999992 30.000002
v 24.999983 -48.000004 30.000002
v 24.999983 -48.000004 30.000002
v 25.000004 -0.000005 30.000002
v 25.000010 47.999992 30.000002
v 25.000010 47.999992 30.000002
v 24.999996 48.000000 -0.000035
v 24.999996 48.000000 -0.000035
v 24.999996 48.000000 15.000001
v -25.000004 -48.000000 -0.000035
v -25.000004 -48.000000 -0.000035
v -25.000004 -48.000000 15.000001
v -24.999992 48.000000 15.000001
v -24.999992 48.000000 -0.000041
v -24.999992 48.000000 -0.000041
v -25.000004 0.000001 -0.000035
v -24.999987 48.000004 30.000002
v -24.999987 48.000004 30.000002
v -24.999996 0.000004 30.000002
v 24.999996 0.000001 -0.000035
v 24.999983 -48.000004 14.999960
v 25.000010 47.999992 14.999967
v -25.000006 -47.999992 14.999967
v -24.999987 48.000004 14.999967
vt 0.025391 0.695312
vt 0.580078 0.962891
vt 0.580078 0.695312
vt 0.580078 0.689453
vt 0.829465 0.000000
vt 0.580078 0.000000
vt 0.580078 0.689453
vt 0.829465 0.000000
vt 0.580078 0.000000
vt 0.580078 0.962891
vt 0.025391 0.695312
vt 0.580078 0.695312
vt 0.829465 0.000000
vt 0.580078 0.689453
vt 0.580078 0.000000
vt 0.580078 0.000000
vt 0.829465 0.689453
vt 0.580078 0.689453
vt 0.829465 0.000000
vt 0.580078 0.689453
vt 0.580078 0.000000
vt 0.580078 0.689453
vt 0.829465 0.000000
vt 0.580078 0.000000
vt 0.580078 0.000000
vt 0.025391 0.689453
vt 0.580078 0.689453
vt 0.580078 0.000000
vt 0.025391 0.689453
vt 0.580078 0.689453
vt 0.580078 0.000000
vt 0.829465 0.689453
vt 0.829465 0.000000
vt 0.025391 0.695312
vt 0.580078 0.962891
vt 0.580078 0.695312
vt 0.025391 0.689453
vt 0.580078 0.000000
vt 0.580078 0.689453
vt 0.025391 0.689453
vt 0.580078 0.000000
vt 0.580078 0.689453
vt 0.580078 0.962891
vt 0.025391 0.695312
vt 0.580078 0.695312
vt 0.580078 0.000000
vt 0.829465 0.689453
vt 0.580078 0.689453
vt 0.025391 0.962891
vt 0.829465 0.689453
vt 0.829465 0.689453
vt 0.025391 0.962891
vt 0.829465 0.689453
vt 0.829465 0.000000
vt 0.829465 0.689453
vt 0.829465 0.689453
vt 0.025391 0.000000
vt 0.025391 0.000000
vt 0.580078 0.689453
vt 0.025391 0.962891
vt 0.025391 0.000000
vt 0.025391 0.000000
vt 0.025391 0.962891
vt 0.829465 0.000000
vn 0.0000 -1.0000 0.0000
vn 1.0000 0.0000 0.0000
vn 0.0000 1.0000 0.0000
vn -1.0000 0.0000 0.0000
vn -0.0000 0.0000 1.0000
vn 0.0000 0.0000 -1.0000
usemtl mtl_money
s off
f 160/121/29 145/122/29 147/123/29
f 121/124/30 168/125/30 123/126/30
f 123/127/30 155/128/30 157/129/30
f 156/130/31 131/131/31 125/132/31
f 164/133/32 128/134/32 132/135/32
f 161/136/32 164/137/32 132/138/32
f 144/139/30 153/140/30 152/141/30
f 165/142/32 139/143/32 140/144/32
f 148/145/33 127/146/33 167/147/33
f 167/148/33 154/149/33 166/150/33
f 149/151/32 139/152/32 137/153/32
f 136/154/31 141/155/31 142/156/31
f 129/157/34 124/158/34 122/159/34
f 133/160/34 126/161/34 124/162/34
f 171/163/29 151/164/29 138/165/29
f 130/166/30 144/167/30 152/168/30
f 160/121/29 158/169/29 145/122/29
f 121/124/30 146/170/30 168/125/30
f 123/127/30 168/171/30 155/128/30
f 156/130/31 162/172/31 131/131/31
f 164/133/32 159/173/32 128/134/32
f 161/136/32 163/174/32 164/137/32
f 144/139/30 170/175/30 153/140/30
f 165/142/32 172/176/32 139/143/32
f 148/145/33 150/177/33 127/146/33
f 167/148/33 127/178/33 154/149/33
f 149/151/32 140/179/32 139/152/32
f 136/154/31 135/180/31 141/155/31
f 129/157/34 133/181/34 124/158/34
f 133/160/34 134/182/34 126/161/34
f 171/163/29 169/183/29 151/164/29
f 130/166/30 143/184/30 144/167/30
