{
  "asset": {
    "copyright": "",
    "generator": "SharpGLTF 1.0.0-alpha0014",
    "version": "2.0"
  },
  "accessors": [
    {
      "bufferView": 0,
      "componentType": 5126,
      "count": 24,
      "max": [
        -50.375198364257812,
        49.000545501708984,
        3.106552867393475E-06
      ],
      "min": [
        -53.875198364257812,
        45.250545501708984,
        -0.24999715387821198
      ],
      "type": "VEC3"
    },
    {
      "bufferView": 1,
      "componentType": 5123,
      "count": 36,
      "type": "SCALAR"
    },
    {
      "bufferView": 2,
      "componentType": 5126,
      "count": 24,
      "max": [
        -34.619998931884766,
        31.74964714050293,
        2.16671901398513E-06
      ],
      "min": [
        -41.619998931884766,
        23.74964714050293,
        -0.24999789893627167
      ],
      "type": "VEC3"
    },
    {
      "bufferView": 3,
      "componentType": 5123,
      "count": 36,
      "type": "SCALAR"
    },
    {
      "bufferView": 4,
      "componentType": 5126,
      "count": 24,
      "max": [
        -50.375198364257812,
        37.50054931640625,
        2.6038719624921214E-06
      ],
      "min": [
        -53.875198364257812,
        33.75054931640625,
        -0.24999764561653137
      ],
      "type": "VEC3"
    },
    {
      "bufferView": 5,
      "componentType": 5123,
      "count": 36,
      "type": "SCALAR"
    },
    {
      "bufferView": 6,
      "componentType": 5126,
      "count": 24,
      "max": [
        -38.869998931884766,
        56.500656127929688,
        3.44531622431532E-06
      ],
      "min": [
        -42.625400543212891,
        53.000545501708984,
        -0.24999682605266571
      ],
      "type": "VEC3"
    },
    {
      "bufferView": 7,
      "componentType": 5123,
      "count": 36,
      "type": "SCALAR"
    },
    {
      "bufferView": 8,
      "componentType": 5126,
      "count": 24,
      "max": [
        -17.954801559448242,
        47.425746917724609,
        2.7802079785033129E-06
      ],
      "min": [
        -21.619998931884766,
        26.739248275756836,
        -0.24999770522117615
      ],
      "type": "VEC3"
    },
    {
      "bufferView": 9,
      "componentType": 5123,
      "count": 36,
      "type": "SCALAR"
    },
    {
      "bufferView": 10,
      "componentType": 5126,
      "count": 24,
      "max": [
        -26.119998931884766,
        21.973859786987305,
        0.034899495542049408
      ],
      "min": [
        -30.130399703979492,
        19.118829727172852,
        -1.75779390335083
      ],
      "type": "VEC3"
    },
    {
      "bufferView": 11,
      "componentType": 5123,
      "count": 36,
      "type": "SCALAR"
    },
    {
      "bufferView": 12,
      "componentType": 5126,
      "count": 24,
      "max": [
        -20.257566452026367,
        8.737818717956543,
        1.1566887678782223E-06
      ],
      "min": [
        -39.681034088134766,
        -10.685647010803223,
        -0.24999934434890747
      ],
      "type": "VEC3"
    },
    {
      "bufferView": 13,
      "componentType": 5123,
      "count": 36,
      "type": "SCALAR"
    },
    {
      "bufferView": 14,
      "componentType": 5126,
      "count": 24,
      "max": [
        -25.619998931884766,
        18.74964714050293,
        1.6203266568481922E-06
      ],
      "min": [
        -30.630399703979492,
        11.249648094177246,
        -0.24999846518039703
      ],
      "type": "VEC3"
    },
    {
      "bufferView": 15,
      "componentType": 5123,
      "count": 36,
      "type": "SCALAR"
    },
    {
      "bufferView": 16,
      "componentType": 5126,
      "count": 24,
      "max": [
        -21.619998931884766,
        47.425746917724609,
        2.7802079785033129E-06
      ],
      "min": [
        -30.119998931884766,
        31.74964714050293,
        -0.24999748170375824
      ],
      "type": "VEC3"
    },
    {
      "bufferView": 17,
      "componentType": 5123,
      "count": 36,
      "type": "SCALAR"
    },
    {
      "bufferView": 18,
      "componentType": 5126,
      "count": 24,
      "max": [
        -12.369999885559082,
        0.41485109925270081,
        7.5332013693696354E-07
      ],
      "min": [
        -26.38279914855957,
        -8.5851469039917,
        -0.2499992698431015
      ],
      "type": "VEC3"
    },
    {
      "bufferView": 19,
      "componentType": 5123,
      "count": 36,
      "type": "SCALAR"
    },
    {
      "bufferView": 20,
      "componentType": 5126,
      "count": 222,
      "max": [
        -21.520000457763672,
        31.849647521972656,
        0.034901287406682968
      ],
      "min": [
        -34.719997406005859,
        18.649648666381836,
        -2.0019593238830566
      ],
      "type": "VEC3"
    },
    {
      "bufferView": 21,
      "componentType": 5123,
      "count": 396,
      "type": "SCALAR"
    },
    {
      "bufferView": 22,
      "componentType": 5126,
      "count": 24,
      "max": [
        -22.119998931884766,
        31.24964714050293,
        -1.9999983310699463
      ],
      "min": [
        -34.119998931884766,
        27.239248275756836,
        -2.2499985694885254
      ],
      "type": "VEC3"
    },
    {
      "bufferView": 23,
      "componentType": 5123,
      "count": 36,
      "type": "SCALAR"
    },
    {
      "bufferView": 24,
      "componentType": 5126,
      "count": 24,
      "max": [
        -46.875,
        7.3850774765014648,
        1.2488189895520918E-06
      ],
      "min": [
        -50.375198364257812,
        2.7505462169647217,
        -0.24999897181987763
      ],
      "type": "VEC3"
    },
    {
      "bufferView": 25,
      "componentType": 5123,
      "count": 36,
      "type": "SCALAR"
    },
    {
      "bufferView": 26,
      "componentType": 5126,
      "count": 24,
      "max": [
        -49.119998931884766,
        23.74964714050293,
        1.7452928204875207E-06
      ],
      "min": [
        -50.375198364257812,
        7.3850774765014648,
        -0.249998539686203
      ],
      "type": "VEC3"
    },
    {
      "bufferView": 27,
      "componentType": 5123,
      "count": 36,
      "type": "SCALAR"
    },
    {
      "bufferView": 28,
      "componentType": 5126,
      "count": 24,
      "max": [
        -16.1200008392334,
        19.24964714050293,
        1.6203266568481922E-06
      ],
      "min": [
        -25.619998931884766,
        11.249648094177246,
        -0.24999845027923584
      ],
      "type": "VEC3"
    },
    {
      "bufferView": 29,
      "componentType": 5123,
      "count": 36,
      "type": "SCALAR"
    },
    {
      "bufferView": 30,
      "componentType": 5126,
      "count": 24,
      "max": [
        -16.3700008392334,
        11.249648094177246,
        1.1989005770374206E-06
      ],
      "min": [
        -30.63279914855957,
        0.2496478259563446,
        -0.24999885261058807
      ],
      "type": "VEC3"
    },
    {
      "bufferView": 31,
      "componentType": 5123,
      "count": 36,
      "type": "SCALAR"
    },
    {
      "bufferView": 32,
      "componentType": 5126,
      "count": 24,
      "max": [
        -38.104072570800781,
        6.7485489845275879,
        1.2816022945116856E-06
      ],
      "min": [
        -43.375,
        3.5005462169647217,
        -0.2499990016222
      ],
      "type": "VEC3"
    },
    {
      "bufferView": 33,
      "componentType": 5123,
      "count": 36,
      "type": "SCALAR"
    },
    {
      "bufferView": 34,
      "componentType": 5126,
      "count": 24,
      "max": [
        -50.375,
        25.75054931640625,
        2.0902630240016151E-06
      ],
      "min": [
        -53.875198364257812,
        22.000545501708984,
        -0.24999816715717316
      ],
      "type": "VEC3"
    },
    {
      "bufferView": 35,
      "componentType": 5123,
      "count": 36,
      "type": "SCALAR"
    },
    {
      "bufferView": 36,
      "componentType": 5126,
      "count": 450,
      "max": [
        -38.004070281982422,
        35.849647521972656,
        0.034901462495326996
      ],
      "min": [
        -49.219993591308594,
        6.6476860046386719,
        -0.99999916553497314
      ],
      "type": "VEC3"
    },
    {
      "bufferView": 37,
      "componentType": 5126,
      "count": 450,
      "max": [
        1.0,
        0.51180374622344971,
        1.0
      ],
      "min": [
        -1.0,
        -1.0,
        0.0
      ],
      "type": "VEC3"
    },
    {
      "bufferView": 38,
      "componentType": 5123,
      "count": 462,
      "type": "SCALAR"
    },
    {
      "bufferView": 39,
      "componentType": 5126,
      "count": 32,
      "max": [
        -42.119998931884766,
        35.271385192871094,
        0.03489496186375618
      ],
      "min": [
        -46.119998931884766,
        23.249645233154297,
        -1.2490741014480591
      ],
      "type": "VEC3"
    },
    {
      "bufferView": 40,
      "componentType": 5126,
      "count": 32,
      "max": [
        1.0,
        0.99630188941955566,
        0.99630206823349
      ],
      "min": [
        -1.0,
        -0.99630117416381836,
        -0.99630206823349
      ],
      "type": "VEC3"
    },
    {
      "bufferView": 41,
      "componentType": 5123,
      "count": 36,
      "type": "SCALAR"
    },
    {
      "bufferView": 42,
      "componentType": 5126,
      "count": 28,
      "max": [
        -40.104072570800781,
        23.249645233154297,
        -0.99999898672103882
      ],
      "min": [
        -47.119998931884766,
        8.7529439926147461,
        -1.2499991655349731
      ],
      "type": "VEC3"
    },
    {
      "bufferView": 43,
      "componentType": 5126,
      "count": 28,
      "max": [
        1.0,
        1.0,
        1.0
      ],
      "min": [
        -1.0,
        -1.0,
        -1.0
      ],
      "type": "VEC3"
    },
    {
      "bufferView": 44,
      "componentType": 5123,
      "count": 36,
      "type": "SCALAR"
    },
    {
      "bufferView": 45,
      "componentType": 5126,
      "count": 24,
      "max": [
        -50.375,
        14.0005464553833,
        1.5875427834544098E-06
      ],
      "min": [
        -54.125,
        10.499648094177246,
        -0.24999867379665375
      ],
      "type": "VEC3"
    },
    {
      "bufferView": 46,
      "componentType": 5123,
      "count": 36,
      "type": "SCALAR"
    },
    {
      "bufferView": 47,
      "componentType": 5126,
      "count": 24,
      "max": [
        -30.119998931884766,
        53.000545501708984,
        3.0238902581913862E-06
      ],
      "min": [
        -41.619998931884766,
        31.74964714050293,
        -0.24999748170375824
      ],
      "type": "VEC3"
    },
    {
      "bufferView": 48,
      "componentType": 5123,
      "count": 36,
      "type": "SCALAR"
    },
    {
      "bufferView": 49,
      "componentType": 5126,
      "count": 2802,
      "max": [
        -38.104072570800781,
        35.749649047851562,
        0.034901462495326996
      ],
      "min": [
        -49.119998931884766,
        6.7485489845275879,
        -0.99999958276748657
      ],
      "type": "VEC3"
    },
    {
      "bufferView": 50,
      "componentType": 5126,
      "count": 2802,
      "max": [
        1.0,
        1.0,
        1.0
      ],
      "min": [
        -1.0,
        -1.0,
        0.0
      ],
      "type": "VEC3"
    },
    {
      "bufferView": 51,
      "componentType": 5123,
      "count": 3093,
      "type": "SCALAR"
    },
    {
      "bufferView": 52,
      "componentType": 5126,
      "count": 2136,
      "max": [
        -12.369999885559082,
        56.500656127929688,
        0.034901462495326996
      ],
      "min": [
        -54.125,
        -10.641552925109863,
        -1.9999986886978149
      ],
      "type": "VEC3"
    },
    {
      "bufferView": 53,
      "componentType": 5123,
      "count": 4308,
      "type": "SCALAR"
    },
    {
      "bufferView": 54,
      "componentType": 5126,
      "count": 24,
      "max": [
        -46.619998931884766,
        35.749649047851562,
        2.2698295651935041E-06
      ],
      "min": [
        -50.375198364257812,
        23.74964714050293,
        -0.24999783933162689
      ],
      "type": "VEC3"
    },
    {
      "bufferView": 55,
      "componentType": 5123,
      "count": 36,
      "type": "SCALAR"
    },
    {
      "bufferView": 56,
      "componentType": 5126,
      "count": 24,
      "max": [
        -30.630399703979492,
        26.739248275756836,
        1.8759723161565489E-06
      ],
      "min": [
        -38.104072570800781,
        3.5005462169647217,
        -0.24999871850013733
      ],
      "type": "VEC3"
    },
    {
      "bufferView": 57,
      "componentType": 5123,
      "count": 36,
      "type": "SCALAR"
    },
    {
      "bufferView": 58,
      "componentType": 5126,
      "count": 2077,
      "max": [
        -38.104072570800781,
        35.749649047851562,
        0.034902598708868027
      ],
      "min": [
        -49.119998931884766,
        6.7485489845275879,
        -0.9999992847442627
      ],
      "type": "VEC3"
    },
    {
      "bufferView": 59,
      "componentType": 5126,
      "count": 2077,
      "max": [
        1.0,
        1.0,
        1.0
      ],
      "min": [
        -1.0,
        -1.0,
        -0.026011290028691292
      ],
      "type": "VEC3"
    },
    {
      "bufferView": 60,
      "componentType": 5126,
      "count": 2077,
      "max": [
        1.0,
        1.0,
        1.0,
        1.0
      ],
      "min": [
        0.0,
        0.0,
        0.0,
        0.0
      ],
      "type": "VEC4"
    },
    {
      "bufferView": 61,
      "componentType": 5126,
      "count": 2077,
      "max": [
        43.254070281982422,
        19.2983341217041
      ],
      "min": [
        0.00050000002374872565,
        0.14325422048568726
      ],
      "type": "VEC2"
    },
    {
      "bufferView": 62,
      "componentType": 5123,
      "count": 852,
      "type": "SCALAR"
    },
    {
      "bufferView": 62,
      "byteOffset": 1704,
      "componentType": 5123,
      "count": 2670,
      "type": "SCALAR"
    },
    {
      "bufferView": 63,
      "componentType": 5126,
      "count": 24,
      "max": [
        -17.954801559448242,
        26.739248275756836,
        1.9700178199855145E-06
      ],
      "min": [
        -25.619998931884766,
        19.24964714050293,
        -0.24999812245368958
      ],
      "type": "VEC3"
    },
    {
      "bufferView": 64,
      "componentType": 5123,
      "count": 36,
      "type": "SCALAR"
    },
    {
      "bufferView": 65,
      "componentType": 5126,
      "count": 24,
      "max": [
        -43.375,
        6.7485489845275879,
        1.1286124390608165E-06
      ],
      "min": [
        -46.875,
        0.00054626463679596782,
        -0.2499990016222
      ],
      "type": "VEC3"
    },
    {
      "bufferView": 66,
      "componentType": 5123,
      "count": 36,
      "type": "SCALAR"
    },
    {
      "bufferView": 67,
      "componentType": 5126,
      "count": 24,
      "max": [
        -26.119998931884766,
        27.261159896850586,
        -1.4988304376602173
      ],
      "min": [
        -30.130399703979492,
        21.614742279052734,
        -2.2509646415710449
      ],
      "type": "VEC3"
    },
    {
      "bufferView": 68,
      "componentType": 5123,
      "count": 36,
      "type": "SCALAR"
    },
    {
      "bufferView": 69,
      "componentType": 5126,
      "count": 24,
      "max": [
        -41.619998931884766,
        53.000545501708984,
        3.0238902581913862E-06
      ],
      "min": [
        -50.375198364257812,
        35.749649047851562,
        -0.24999730288982391
      ],
      "type": "VEC3"
    },
    {
      "bufferView": 70,
      "componentType": 5123,
      "count": 36,
      "type": "SCALAR"
    }
  ],
  "bufferViews": [
    {
      "buffer": 0,
      "byteLength": 288,
      "byteOffset": 239352,
      "byteStride": 12,
      "target": 34962
    },
    {
      "buffer": 0,
      "byteLength": 72,
      "byteOffset": 246552,
      "target": 34963
    },
    {
      "buffer": 0,
      "byteLength": 288,
      "byteOffset": 239640,
      "byteStride": 12,
      "target": 34962
    },
    {
      "buffer": 0,
      "byteLength": 72,
      "byteOffset": 246624,
      "target": 34963
    },
    {
      "buffer": 0,
      "byteLength": 288,
      "byteOffset": 239928,
      "byteStride": 12,
      "target": 34962
    },
    {
      "buffer": 0,
      "byteLength": 72,
      "byteOffset": 246696,
      "target": 34963
    },
    {
      "buffer": 0,
      "byteLength": 288,
      "byteOffset": 240216,
      "byteStride": 12,
      "target": 34962
    },
    {
      "buffer": 0,
      "byteLength": 72,
      "byteOffset": 246768,
      "target": 34963
    },
    {
      "buffer": 0,
      "byteLength": 288,
      "byteOffset": 240504,
      "byteStride": 12,
      "target": 34962
    },
    {
      "buffer": 0,
      "byteLength": 72,
      "byteOffset": 246840,
      "target": 34963
    },
    {
      "buffer": 0,
      "byteLength": 288,
      "byteOffset": 240792,
      "byteStride": 12,
      "target": 34962
    },
    {
      "buffer": 0,
      "byteLength": 72,
      "byteOffset": 246912,
      "target": 34963
    },
    {
      "buffer": 0,
      "byteLength": 288,
      "byteOffset": 241080,
      "byteStride": 12,
      "target": 34962
    },
    {
      "buffer": 0,
      "byteLength": 72,
      "byteOffset": 246984,
      "target": 34963
    },
    {
      "buffer": 0,
      "byteLength": 288,
      "byteOffset": 241368,
      "byteStride": 12,
      "target": 34962
    },
    {
      "buffer": 0,
      "byteLength": 72,
      "byteOffset": 247056,
      "target": 34963
    },
    {
      "buffer": 0,
      "byteLength": 288,
      "byteOffset": 241656,
      "byteStride": 12,
      "target": 34962
    },
    {
      "buffer": 0,
      "byteLength": 72,
      "byteOffset": 247128,
      "target": 34963
    },
    {
      "buffer": 0,
      "byteLength": 288,
      "byteOffset": 241944,
      "byteStride": 12,
      "target": 34962
    },
    {
      "buffer": 0,
      "byteLength": 72,
      "byteOffset": 247200,
      "target": 34963
    },
    {
      "buffer": 0,
      "byteLength": 2664,
      "byteOffset": 233532,
      "byteStride": 12,
      "target": 34962
    },
    {
      "buffer": 0,
      "byteLength": 792,
      "byteOffset": 237120,
      "target": 34963
    },
    {
      "buffer": 0,
      "byteLength": 288,
      "byteOffset": 242232,
      "byteStride": 12,
      "target": 34962
    },
    {
      "buffer": 0,
      "byteLength": 72,
      "byteOffset": 247272,
      "target": 34963
    },
    {
      "buffer": 0,
      "byteLength": 288,
      "byteOffset": 242520,
      "byteStride": 12,
      "target": 34962
    },
    {
      "buffer": 0,
      "byteLength": 72,
      "byteOffset": 247344,
      "target": 34963
    },
    {
      "buffer": 0,
      "byteLength": 288,
      "byteOffset": 242808,
      "byteStride": 12,
      "target": 34962
    },
    {
      "buffer": 0,
      "byteLength": 72,
      "byteOffset": 247416,
      "target": 34963
    },
    {
      "buffer": 0,
      "byteLength": 288,
      "byteOffset": 243096,
      "byteStride": 12,
      "target": 34962
    },
    {
      "buffer": 0,
      "byteLength": 72,
      "byteOffset": 247488,
      "target": 34963
    },
    {
      "buffer": 0,
      "byteLength": 288,
      "byteOffset": 243384,
      "byteStride": 12,
      "target": 34962
    },
    {
      "buffer": 0,
      "byteLength": 72,
      "byteOffset": 247560,
      "target": 34963
    },
    {
      "buffer": 0,
      "byteLength": 288,
      "byteOffset": 243672,
      "byteStride": 12,
      "target": 34962
    },
    {
      "buffer": 0,
      "byteLength": 72,
      "byteOffset": 247632,
      "target": 34963
    },
    {
      "buffer": 0,
      "byteLength": 288,
      "byteOffset": 243960,
      "byteStride": 12,
      "target": 34962
    },
    {
      "buffer": 0,
      "byteLength": 72,
      "byteOffset": 247704,
      "target": 34963
    },
    {
      "buffer": 0,
      "byteLength": 5400,
      "byteOffset": 222732,
      "byteStride": 12,
      "target": 34962
    },
    {
      "buffer": 0,
      "byteLength": 5400,
      "byteOffset": 228132,
      "byteStride": 12,
      "target": 34962
    },
    {
      "buffer": 0,
      "byteLength": 924,
      "byteOffset": 236196,
      "target": 34963
    },
    {
      "buffer": 0,
      "byteLength": 384,
      "byteOffset": 237912,
      "byteStride": 12,
      "target": 34962
    },
    {
      "buffer": 0,
      "byteLength": 384,
      "byteOffset": 238296,
      "byteStride": 12,
      "target": 34962
    },
    {
      "buffer": 0,
      "byteLength": 72,
      "byteOffset": 247776,
      "target": 34963
    },
    {
      "buffer": 0,
      "byteLength": 336,
      "byteOffset": 238680,
      "byteStride": 12,
      "target": 34962
    },
    {
      "buffer": 0,
      "byteLength": 336,
      "byteOffset": 239016,
      "byteStride": 12,
      "target": 34962
    },
    {
      "buffer": 0,
      "byteLength": 72,
      "byteOffset": 247848,
      "target": 34963
    },
    {
      "buffer": 0,
      "byteLength": 288,
      "byteOffset": 244248,
      "byteStride": 12,
      "target": 34962
    },
    {
      "buffer": 0,
      "byteLength": 72,
      "byteOffset": 247920,
      "target": 34963
    },
    {
      "buffer": 0,
      "byteLength": 288,
      "byteOffset": 244536,
      "byteStride": 12,
      "target": 34962
    },
    {
      "buffer": 0,
      "byteLength": 72,
      "byteOffset": 247992,
      "target": 34963
    },
    {
      "buffer": 0,
      "byteLength": 33624,
      "byteStride": 12,
      "target": 34962
    },
    {
      "buffer": 0,
      "byteLength": 33624,
      "byteOffset": 33624,
      "byteStride": 12,
      "target": 34962
    },
    {
      "buffer": 0,
      "byteLength": 6186,
      "byteOffset": 216544,
      "target": 34963
    },
    {
      "buffer": 0,
      "byteLength": 25632,
      "byteOffset": 100480,
      "byteStride": 12,
      "target": 34962
    },
    {
      "buffer": 0,
      "byteLength": 8616,
      "byteOffset": 200884,
      "target": 34963
    },
    {
      "buffer": 0,
      "byteLength": 288,
      "byteOffset": 244824,
      "byteStride": 12,
      "target": 34962
    },
    {
      "buffer": 0,
      "byteLength": 72,
      "byteOffset": 248064,
      "target": 34963
    },
    {
      "buffer": 0,
      "byteLength": 288,
      "byteOffset": 245112,
      "byteStride": 12,
      "target": 34962
    },
    {
      "buffer": 0,
      "byteLength": 72,
      "byteOffset": 248136,
      "target": 34963
    },
    {
      "buffer": 0,
      "byteLength": 24924,
      "byteOffset": 126112,
      "byteStride": 12,
      "target": 34962
    },
    {
      "buffer": 0,
      "byteLength": 24924,
      "byteOffset": 151036,
      "byteStride": 12,
      "target": 34962
    },
    {
      "buffer": 0,
      "byteLength": 33232,
      "byteOffset": 67248,
      "byteStride": 16,
      "target": 34962
    },
    {
      "buffer": 0,
      "byteLength": 24924,
      "byteOffset": 175960,
      "byteStride": 12,
      "target": 34962
    },
    {
      "buffer": 0,
      "byteLength": 7044,
      "byteOffset": 209500,
      "target": 34963
    },
    {
      "buffer": 0,
      "byteLength": 288,
      "byteOffset": 245400,
      "byteStride": 12,
      "target": 34962
    },
    {
      "buffer": 0,
      "byteLength": 72,
      "byteOffset": 248208,
      "target": 34963
    },
    {
      "buffer": 0,
      "byteLength": 288,
      "byteOffset": 245688,
      "byteStride": 12,
      "target": 34962
    },
    {
      "buffer": 0,
      "byteLength": 72,
      "byteOffset": 248280,
      "target": 34963
    },
    {
      "buffer": 0,
      "byteLength": 288,
      "byteOffset": 245976,
      "byteStride": 12,
      "target": 34962
    },
    {
      "buffer": 0,
      "byteLength": 72,
      "byteOffset": 248352,
      "target": 34963
    },
    {
      "buffer": 0,
      "byteLength": 288,
      "byteOffset": 246264,
      "byteStride": 12,
      "target": 34962
    },
    {
      "buffer": 0,
      "byteLength": 72,
      "byteOffset": 248424,
      "target": 34963
    }
  ],
  "buffers": [
    {
      "byteLength": 248496,
      "uri": "pool_1 - Copy.bin"
    }
  ],
  "materials": [
    {
      "name": "Default"
    },
    {
      "name": "shadow_caster"
    },
    {
      "name": "mat_ext_floor"
    },
    {
      "name": "mat_ext_trim"
    },
    {
      "name": "mat_ext_pool"
    },
    {
      "name": "Material: Default Material"
    }
  ],
  "meshes": [
    {
      "name": "c_box_10",
      "primitives": [
        {
          "attributes": {
            "POSITION": 0
          },
          "indices": 1
        }
      ]
    },
    {
      "name": "c_box_18",
      "primitives": [
        {
          "attributes": {
            "POSITION": 2
          },
          "indices": 3
        }
      ]
    },
    {
      "name": "c_box_11",
      "primitives": [
        {
          "attributes": {
            "POSITION": 4
          },
          "indices": 5
        }
      ]
    },
    {
      "name": "c_box_09",
      "primitives": [
        {
          "attributes": {
            "POSITION": 6
          },
          "indices": 7
        }
      ]
    },
    {
      "name": "c_box_05",
      "primitives": [
        {
          "attributes": {
            "POSITION": 8
          },
          "indices": 9
        }
      ]
    },
    {
      "name": "c_convex_03",
      "primitives": [
        {
          "attributes": {
            "POSITION": 10
          },
          "indices": 11
        }
      ]
    },
    {
      "name": "c_box_22",
      "primitives": [
        {
          "attributes": {
            "POSITION": 12
          },
          "indices": 13
        }
      ]
    },
    {
      "name": "c_box_20",
      "primitives": [
        {
          "attributes": {
            "POSITION": 14
          },
          "indices": 15
        }
      ]
    },
    {
      "name": "c_box_06",
      "primitives": [
        {
          "attributes": {
            "POSITION": 16
          },
          "indices": 17
        }
      ]
    },
    {
      "name": "c_box_01",
      "primitives": [
        {
          "attributes": {
            "POSITION": 18
          },
          "indices": 19
        }
      ]
    },
    {
      "name": "c_meshmopp_02",
      "primitives": [
        {
          "attributes": {
            "POSITION": 20
          },
          "indices": 21
        }
      ]
    },
    {
      "name": "c_box_24",
      "primitives": [
        {
          "attributes": {
            "POSITION": 22
          },
          "indices": 23
        }
      ]
    },
    {
      "name": "c_box_17",
      "primitives": [
        {
          "attributes": {
            "POSITION": 24
          },
          "indices": 25
        }
      ]
    },
    {
      "name": "c_box_16",
      "primitives": [
        {
          "attributes": {
            "POSITION": 26
          },
          "indices": 27
        }
      ]
    },
    {
      "name": "c_box_03",
      "primitives": [
        {
          "attributes": {
            "POSITION": 28
          },
          "indices": 29
        }
      ]
    },
    {
      "name": "c_box_02",
      "primitives": [
        {
          "attributes": {
            "POSITION": 30
          },
          "indices": 31
        }
      ]
    },
    {
      "name": "c_box_21",
      "primitives": [
        {
          "attributes": {
            "POSITION": 32
          },
          "indices": 33
        }
      ]
    },
    {
      "name": "c_box_12",
      "primitives": [
        {
          "attributes": {
            "POSITION": 34
          },
          "indices": 35
        }
      ]
    },
    {
      "name": "c_meshmopp_01",
      "primitives": [
        {
          "attributes": {
            "POSITION": 36,
            "NORMAL": 37
          },
          "indices": 38
        }
      ]
    },
    {
      "name": "c_convex_01",
      "primitives": [
        {
          "attributes": {
            "POSITION": 39,
            "NORMAL": 40
          },
          "indices": 41
        }
      ]
    },
    {
      "name": "c_box_23",
      "primitives": [
        {
          "attributes": {
            "POSITION": 42,
            "NORMAL": 43
          },
          "indices": 44
        }
      ]
    },
    {
      "name": "c_box_13",
      "primitives": [
        {
          "attributes": {
            "POSITION": 45
          },
          "indices": 46
        }
      ]
    },
    {
      "name": "c_box_07",
      "primitives": [
        {
          "attributes": {
            "POSITION": 47
          },
          "indices": 48
        }
      ]
    },
    {
      "name": "s_cas_yard",
      "primitives": [
        {
          "attributes": {
            "POSITION": 49,
            "NORMAL": 50
          },
          "indices": 51,
          "material": 1
        }
      ]
    },
    {
      "name": "dm_concrete",
      "primitives": [
        {
          "attributes": {
            "POSITION": 52
          },
          "indices": 53
        }
      ]
    },
    {
      "name": "c_box_15",
      "primitives": [
        {
          "attributes": {
            "POSITION": 54
          },
          "indices": 55
        }
      ]
    },
    {
      "name": "c_box_19",
      "primitives": [
        {
          "attributes": {
            "POSITION": 56
          },
          "indices": 57
        }
      ]
    },
    {
      "name": "g_cas_yard_01",
      "primitives": [
        {
          "attributes": {
            "POSITION": 58,
            "NORMAL": 59,
            "COLOR_0": 60,
            "TEXCOORD_0": 61
          },
          "indices": 62,
          "material": 2
        },
        {
          "attributes": {
            "POSITION": 58,
            "NORMAL": 59,
            "COLOR_0": 60,
            "TEXCOORD_0": 61
          },
          "indices": 63,
          "material": 3
        }
      ]
    },
    {
      "name": "c_box_04",
      "primitives": [
        {
          "attributes": {
            "POSITION": 64
          },
          "indices": 65
        }
      ]
    },
    {
      "name": "c_box_14",
      "primitives": [
        {
          "attributes": {
            "POSITION": 66
          },
          "indices": 67
        }
      ]
    },
    {
      "name": "c_convex_02",
      "primitives": [
        {
          "attributes": {
            "POSITION": 68
          },
          "indices": 69
        }
      ]
    },
    {
      "name": "c_box_08",
      "primitives": [
        {
          "attributes": {
            "POSITION": 70
          },
          "indices": 71
        }
      ]
    }
  ],
  "nodes": [
    {
      "name": "rp_cas_yard_01",
      "children": [
        1,
        2,
        3,
        4,
        5,
        6,
        7,
        8,
        9,
        10,
        11,
        12,
        13,
        14,
        15,
        16,
        17,
        18,
        19,
        20,
        21,
        22,
        23,
        24,
        25,
        26,
        27,
        28,
        29,
        30,
        31,
        32
      ],
      "matrix": [
        1.0,
        0.0,
        0.0,
        0.0,
        0.0,
        1.0,
        0.0,
        0.0,
        0.0,
        0.0,
        1.0,
        0.0,
        0.0,
        29.57983,
        0.0,
        1.0
      ]
    },
    {
      "name": "c_box_10",
      "mesh": 0
    },
    {
      "name": "c_box_18",
      "mesh": 1
    },
    {
      "name": "c_box_11",
      "mesh": 2
    },
    {
      "name": "c_box_09",
      "mesh": 3
    },
    {
      "name": "c_box_05",
      "mesh": 4
    },
    {
      "name": "c_convex_03",
      "mesh": 5
    },
    {
      "name": "c_box_22",
      "mesh": 6
    },
    {
      "name": "c_box_20",
      "mesh": 7
    },
    {
      "name": "c_box_06",
      "mesh": 8
    },
    {
      "name": "c_box_01",
      "mesh": 9
    },
    {
      "name": "c_meshmopp_02",
      "mesh": 10
    },
    {
      "name": "c_box_24",
      "mesh": 11
    },
    {
      "name": "c_box_17",
      "mesh": 12
    },
    {
      "name": "c_box_16",
      "mesh": 13
    },
    {
      "name": "c_box_03",
      "matrix": [
        1.0,
        -2.44929371E-16,
        -5.35310124E-24,
        0.0,
        2.44929371E-16,
        1.0,
        -1.311132E-39,
        0.0,
        5.35310124E-24,
        0.0,
        1.0,
        0.0,
        0.0,
        0.0,
        0.0,
        1.0
      ],
      "mesh": 14
    },
    {
      "name": "c_box_02",
      "mesh": 15
    },
    {
      "name": "c_box_21",
      "mesh": 16
    },
    {
      "name": "c_box_12",
      "mesh": 17
    },
    {
      "name": "c_meshmopp_01",
      "matrix": [
        1.0,
        0.0,
        0.0,
        0.0,
        0.0,
        1.0,
        0.0,
        0.0,
        0.0,
        0.0,
        1.0,
        0.0,
        44.757122,
        -36.13389,
        0.0,
        1.0
      ],
      "mesh": 18
    },
    {
      "name": "c_convex_01",
      "matrix": [
        1.0,
        0.0,
        0.0,
        0.0,
        0.0,
        1.0,
        0.0,
        0.0,
        0.0,
        0.0,
        1.0,
        0.0,
        44.757122,
        -36.13389,
        0.0,
        1.0
      ],
      "mesh": 19
    },
    {
      "name": "c_box_23",
      "matrix": [
        1.0,
        0.0,
        0.0,
        0.0,
        0.0,
        1.0,
        0.0,
        0.0,
        0.0,
        0.0,
        1.0,
        0.0,
        44.757122,
        -36.13389,
        0.0,
        1.0
      ],
      "mesh": 20
    },
    {
      "name": "c_box_13",
      "mesh": 21
    },
    {
      "name": "c_box_07",
      "mesh": 22
    },
    {
      "name": "s_cas_yard",
      "matrix": [
        1.0,
        0.0,
        0.0,
        0.0,
        0.0,
        1.0,
        0.0,
        0.0,
        0.0,
        0.0,
        1.0,
        0.0,
        44.757122,
        -36.13389,
        0.0,
        1.0
      ],
      "mesh": 23
    },
    {
      "name": "dm_concrete",
      "mesh": 24
    },
    {
      "name": "c_box_15",
      "mesh": 25
    },
    {
      "name": "c_box_19",
      "mesh": 26
    },
    {
      "name": "g_cas_yard_01",
      "matrix": [
        1.0,
        0.0,
        0.0,
        0.0,
        0.0,
        1.0,
        0.0,
        0.0,
        0.0,
        0.0,
        1.0,
        0.0,
        44.757122,
        -36.13389,
        0.0,
        1.0
      ],
      "mesh": 27
    },
    {
      "name": "c_box_04",
      "mesh": 28
    },
    {
      "name": "c_box_14",
      "mesh": 29
    },
    {
      "name": "c_convex_02",
      "mesh": 30
    },
    {
      "name": "c_box_08",
      "mesh": 31
    }
  ],
  "scenes": [
    {
      "extras": {
        "glTF2ExportSettings": {
          "export_extras": 1,
          "export_lights": 1
        }
      },
      "nodes": [
        0
      ]
    }
  ]
}